<?xml version="1.0" encoding="UTF-8" standalone="no"?>
<!-- Created with Inkscape (http://www.inkscape.org/) -->

<svg
   xmlns:dc="http://purl.org/dc/elements/1.1/"
   xmlns:cc="http://creativecommons.org/ns#"
   xmlns:rdf="http://www.w3.org/1999/02/22-rdf-syntax-ns#"
   xmlns:svg="http://www.w3.org/2000/svg"
   xmlns="http://www.w3.org/2000/svg"
   xmlns:sodipodi="http://sodipodi.sourceforge.net/DTD/sodipodi-0.dtd"
   xmlns:inkscape="http://www.inkscape.org/namespaces/inkscape"
   width="2.9000001mm"
   height="4mm"
   viewBox="0 0 10.275591 14.173228"
   id="svg2"
   version="1.1"
   inkscape:version="0.92.3 (2405546, 2018-03-11)"
   sodipodi:docname="le.svg">
  <defs
     id="defs4" />
  <sodipodi:namedview
     id="base"
     pagecolor="#ffffff"
     bordercolor="#666666"
     borderopacity="1.0"
     inkscape:pageopacity="0.0"
     inkscape:pageshadow="2"
     inkscape:zoom="11.2"
     inkscape:cx="-59.139724"
     inkscape:cy="11.991076"
     inkscape:document-units="px"
     inkscape:current-layer="layer1"
     showgrid="false"
     inkscape:window-width="1920"
     inkscape:window-height="1025"
     inkscape:window-x="0"
     inkscape:window-y="0"
     inkscape:window-maximized="1" />
  <metadata
     id="metadata7">
    <rdf:RDF>
      <cc:Work
         rdf:about="">
        <dc:format>image/svg+xml</dc:format>
        <dc:type
           rdf:resource="http://purl.org/dc/dcmitype/StillImage" />
        <dc:title />
      </cc:Work>
    </rdf:RDF>
  </metadata>
  <g
     inkscape:label="Layer 1"
     inkscape:groupmode="layer"
     id="layer1"
     transform="translate(0,-1038.189)">
    <g
       aria-label="e"
       style="font-style:normal;font-variant:normal;font-weight:500;font-stretch:normal;line-height:0%;font-family:'CMU Serif';-inkscape-font-specification:'CMU Serif Medium';text-align:center;letter-spacing:0px;word-spacing:0px;text-anchor:middle;fill:#ffffff;fill-opacity:1;stroke:none;stroke-width:1px;stroke-linecap:butt;stroke-linejoin:miter;stroke-opacity:1"
       id="text4133">
      <path
         d="m 2.6460686,1046.7053 q 0,-1.178 0.7568359,-2.0141 0.7568359,-0.8362 1.8432617,-0.8362 1.0986328,0 1.6662598,0.7141 0.5737305,0.7141 0.5737305,1.7395 0,0.1892 -0.048828,0.2258 -0.048828,0.037 -0.2624511,0.037 h -3.491211 q 0,1.2757 0.378418,1.8738 0.5249023,0.8362 1.4099121,0.8362 0.1220703,0 0.2685547,-0.024 0.1464844,-0.024 0.4455566,-0.1282 0.2990723,-0.1098 0.5615235,-0.3967 0.2624511,-0.2869 0.415039,-0.7385 0.036621,-0.177 0.1586914,-0.1709 0.164795,0 0.164795,0.1465 0,0.1098 -0.1220703,0.3601 -0.1159668,0.2441 -0.3417969,0.5371 -0.2258301,0.2929 -0.6652832,0.5127 -0.4333496,0.2197 -0.958252,0.2197 -1.0986328,0 -1.9287109,-0.8301 -0.8239746,-0.8362 -0.8239746,-2.063 z m 1.0498047,-0.3967 h 2.9663086 q 0,-0.2625 -0.048828,-0.5554 -0.042725,-0.293 -0.1770019,-0.6958 -0.1281739,-0.409 -0.4333496,-0.6653 -0.3051758,-0.2564 -0.756836,-0.2564 -0.201416,0 -0.4211425,0.085 -0.2136231,0.085 -0.4760743,0.293 -0.2624511,0.2075 -0.4455566,0.6775 -0.1831055,0.4699 -0.2075195,1.1169 z"
         style="font-size:12.5px;line-height:1.25"
         id="path9"
         inkscape:connector-curvature="0" />
    </g>
  </g>
</svg>
