<?xml version="1.0" encoding="UTF-8" standalone="no"?>
<!-- Created with Inkscape (http://www.inkscape.org/) -->

<svg
   xmlns:dc="http://purl.org/dc/elements/1.1/"
   xmlns:cc="http://creativecommons.org/ns#"
   xmlns:rdf="http://www.w3.org/1999/02/22-rdf-syntax-ns#"
   xmlns:svg="http://www.w3.org/2000/svg"
   xmlns="http://www.w3.org/2000/svg"
   xmlns:sodipodi="http://sodipodi.sourceforge.net/DTD/sodipodi-0.dtd"
   xmlns:inkscape="http://www.inkscape.org/namespaces/inkscape"
   width="2.9000001mm"
   height="4mm"
   viewBox="0 0 10.275591 14.173228"
   id="svg2"
   version="1.1"
   inkscape:version="0.92.3 (2405546, 2018-03-11)"
   sodipodi:docname="lf.svg">
  <defs
     id="defs4" />
  <sodipodi:namedview
     id="base"
     pagecolor="#ffffff"
     bordercolor="#666666"
     borderopacity="1.0"
     inkscape:pageopacity="0.0"
     inkscape:pageshadow="2"
     inkscape:zoom="7.919596"
     inkscape:cx="-78.495514"
     inkscape:cy="9.9680878"
     inkscape:document-units="px"
     inkscape:current-layer="layer1"
     showgrid="false"
     inkscape:window-width="1920"
     inkscape:window-height="1025"
     inkscape:window-x="0"
     inkscape:window-y="0"
     inkscape:window-maximized="1" />
  <metadata
     id="metadata7">
    <rdf:RDF>
      <cc:Work
         rdf:about="">
        <dc:format>image/svg+xml</dc:format>
        <dc:type
           rdf:resource="http://purl.org/dc/dcmitype/StillImage" />
        <dc:title />
      </cc:Work>
    </rdf:RDF>
  </metadata>
  <g
     inkscape:label="Layer 1"
     inkscape:groupmode="layer"
     id="layer1"
     transform="translate(0,-1038.189)">
    <g
       aria-label="f"
       style="font-style:normal;font-variant:normal;font-weight:500;font-stretch:normal;line-height:0%;font-family:'CMU Serif';-inkscape-font-specification:'CMU Serif Medium';text-align:center;letter-spacing:0px;word-spacing:0px;text-anchor:middle;fill:#ffffff;fill-opacity:1;stroke:none;stroke-width:1px;stroke-linecap:butt;stroke-linejoin:miter;stroke-opacity:1"
       id="text4133">
      <path
         d="m 3.5799065,1044.4592 v -0.3906 h 0.982666 v -1.4343 q 0,-0.9278 0.5981445,-1.4588 0.6042481,-0.531 1.3427734,-0.531 0.4882813,0 0.8056641,0.2625 0.3173828,0.2624 0.3173828,0.6164 0,0.2381 -0.1464844,0.3968 -0.1403808,0.1526 -0.402832,0.1526 -0.2502441,0 -0.3967285,-0.1587 -0.1403809,-0.1587 -0.1403809,-0.3785 0,-0.4028 0.3723145,-0.5249 -0.189209,-0.085 -0.4089356,-0.091 -0.4516601,0 -0.805664,0.4639 -0.3479004,0.4638 -0.3479004,1.239 v 1.4465 h 1.4648437 v 0.3906 H 5.3926506 v 4.0222 q 0,0.3602 0.1464844,0.4761 0.1525879,0.116 0.7995605,0.116 h 0.2624512 v 0.3845 q -0.5004883,-0.037 -1.5869141,-0.037 -0.1525879,0 -0.390625,0.01 -0.2319336,0.01 -0.5493164,0.018 -0.3112793,0.012 -0.4821777,0.012 v -0.3845 q 0.6652832,0 0.8178711,-0.079 0.1525879,-0.085 0.1525879,-0.4882 v -4.0467 z"
         style="font-size:12.5px;line-height:1.25"
         id="path9"
         inkscape:connector-curvature="0" />
    </g>
  </g>
</svg>
