<?xml version="1.0" encoding="UTF-8" standalone="no"?>
<!-- Created with Inkscape (http://www.inkscape.org/) -->

<svg
   xmlns:dc="http://purl.org/dc/elements/1.1/"
   xmlns:cc="http://creativecommons.org/ns#"
   xmlns:rdf="http://www.w3.org/1999/02/22-rdf-syntax-ns#"
   xmlns:svg="http://www.w3.org/2000/svg"
   xmlns="http://www.w3.org/2000/svg"
   xmlns:sodipodi="http://sodipodi.sourceforge.net/DTD/sodipodi-0.dtd"
   xmlns:inkscape="http://www.inkscape.org/namespaces/inkscape"
   width="2.9000001mm"
   height="4mm"
   viewBox="0 0 10.275591 14.173228"
   id="svg2"
   version="1.1"
   inkscape:version="0.92.3 (2405546, 2018-03-11)"
   sodipodi:docname="lq.svg">
  <defs
     id="defs4" />
  <sodipodi:namedview
     id="base"
     pagecolor="#ffffff"
     bordercolor="#666666"
     borderopacity="1.0"
     inkscape:pageopacity="0.0"
     inkscape:pageshadow="2"
     inkscape:zoom="7.919596"
     inkscape:cx="-56.009635"
     inkscape:cy="3.0152173"
     inkscape:document-units="px"
     inkscape:current-layer="layer1"
     showgrid="false"
     inkscape:window-width="1920"
     inkscape:window-height="1025"
     inkscape:window-x="0"
     inkscape:window-y="0"
     inkscape:window-maximized="1" />
  <metadata
     id="metadata7">
    <rdf:RDF>
      <cc:Work
         rdf:about="">
        <dc:format>image/svg+xml</dc:format>
        <dc:type
           rdf:resource="http://purl.org/dc/dcmitype/StillImage" />
        <dc:title />
      </cc:Work>
    </rdf:RDF>
  </metadata>
  <g
     inkscape:label="Layer 1"
     inkscape:groupmode="layer"
     id="layer1"
     transform="translate(0,-1038.189)">
    <g
       aria-label="q"
       style="font-style:normal;font-variant:normal;font-weight:500;font-stretch:normal;line-height:0%;font-family:'CMU Serif';-inkscape-font-specification:'CMU Serif Medium';text-align:center;letter-spacing:0px;word-spacing:0px;text-anchor:middle;fill:#ffffff;fill-opacity:1;stroke:none;stroke-width:1px;stroke-linecap:butt;stroke-linejoin:miter;stroke-opacity:1"
       id="text4133">
      <path
         d="m 2.2005119,1046.7725 q 0,-1.2024 0.8239746,-2.0203 0.8239747,-0.8179 1.9348145,-0.8179 0.4638672,0 0.8422852,0.2259 0.3845214,0.2258 0.5493164,0.4516 0.1708984,0.2197 0.2868652,0.4578 l 0.4699707,-1.1353 h 0.2807617 v 7.0008 q 0,0.4028 0.1525879,0.4821 0.1586914,0.079 0.8178711,0.079 v 0.3845 q -1.3122559,-0.037 -1.4099121,-0.037 -0.1220703,0 -1.4038086,0.037 v -0.3845 q 0.6652832,0 0.8178711,-0.085 0.1586914,-0.079 0.1586914,-0.476 v -2.24 q -0.6896973,0.8972 -1.6601563,0.9033 -1.0864257,0 -1.8737793,-0.8301 -0.7873535,-0.8362 -0.7873535,-1.9958 z m 1.0375977,0 q 0,1.0742 0.4882812,1.8127 0.4943848,0.7324 1.1840821,0.7324 0.6774902,0 1.1474609,-0.5066 0.5004883,-0.5493 0.5004883,-1.0559 v -1.7578 q 0,-0.5859 -0.4211426,-1.1658 -0.4150391,-0.5859 -1.0986328,-0.5859 -0.7141113,0 -1.2573242,0.7202 -0.5432129,0.7202 -0.5432129,1.8067 z"
         style="font-size:12.5px;line-height:1.25"
         id="path9"
         inkscape:connector-curvature="0" />
    </g>
  </g>
</svg>
