<?xml version="1.0" encoding="UTF-8" standalone="no"?>
<!-- Created with Inkscape (http://www.inkscape.org/) -->

<svg
   xmlns:dc="http://purl.org/dc/elements/1.1/"
   xmlns:cc="http://creativecommons.org/ns#"
   xmlns:rdf="http://www.w3.org/1999/02/22-rdf-syntax-ns#"
   xmlns:svg="http://www.w3.org/2000/svg"
   xmlns="http://www.w3.org/2000/svg"
   xmlns:sodipodi="http://sodipodi.sourceforge.net/DTD/sodipodi-0.dtd"
   xmlns:inkscape="http://www.inkscape.org/namespaces/inkscape"
   width="2.9000001mm"
   height="4mm"
   viewBox="0 0 10.275591 14.173228"
   id="svg2"
   version="1.1"
   inkscape:version="0.92.3 (2405546, 2018-03-11)"
   sodipodi:docname="lu.svg">
  <defs
     id="defs4" />
  <sodipodi:namedview
     id="base"
     pagecolor="#ffffff"
     bordercolor="#666666"
     borderopacity="1.0"
     inkscape:pageopacity="0.0"
     inkscape:pageshadow="2"
     inkscape:zoom="3.959798"
     inkscape:cx="-132.58202"
     inkscape:cy="6.3263015"
     inkscape:document-units="px"
     inkscape:current-layer="layer1"
     showgrid="false"
     inkscape:window-width="1920"
     inkscape:window-height="1025"
     inkscape:window-x="0"
     inkscape:window-y="0"
     inkscape:window-maximized="1" />
  <metadata
     id="metadata7">
    <rdf:RDF>
      <cc:Work
         rdf:about="">
        <dc:format>image/svg+xml</dc:format>
        <dc:type
           rdf:resource="http://purl.org/dc/dcmitype/StillImage" />
        <dc:title />
      </cc:Work>
    </rdf:RDF>
  </metadata>
  <g
     inkscape:label="Layer 1"
     inkscape:groupmode="layer"
     id="layer1"
     transform="translate(0,-1038.189)">
    <g
       aria-label="u"
       style="font-style:normal;font-variant:normal;font-weight:500;font-stretch:normal;line-height:0%;font-family:'CMU Serif';-inkscape-font-specification:'CMU Serif Medium';text-align:center;letter-spacing:0px;word-spacing:0px;text-anchor:middle;fill:#ffffff;fill-opacity:1;stroke:none;stroke-width:1px;stroke-linecap:butt;stroke-linejoin:miter;stroke-opacity:1"
       id="text4133">
      <path
         d="m 2.0051994,1044.4592 v -0.3906 l 1.8371582,-0.1343 v 4.1504 q 0,0.2991 0.024414,0.4761 0.024414,0.1709 0.1220703,0.3723 0.1037598,0.2014 0.3356934,0.293 0.2380371,0.091 0.616455,0.091 0.6774903,0 1.0925293,-0.5554 0.4211426,-0.5554 0.4211426,-1.3794 v -2.2278 q 0,-0.4638 -0.1647949,-0.5798 -0.1647949,-0.116 -0.8117676,-0.116 v -0.3906 l 1.8371582,-0.1343 v 4.4373 q 0,0.4638 0.1586914,0.5859 0.164795,0.116 0.8178711,0.116 v 0.3845 l -1.8005371,0.1404 v -1.1292 q -0.5249023,1.1231 -1.6113281,1.1292 -0.5493164,0 -0.9277344,-0.1404 -0.3723144,-0.1404 -0.5615234,-0.3113 -0.189209,-0.177 -0.2929688,-0.5127 -0.097656,-0.3357 -0.1098633,-0.5432 -0.012207,-0.2075 -0.012207,-0.6103 v -1.8738 q 0,-0.8484 -0.1220703,-0.9949 -0.1220703,-0.1526 -0.8483887,-0.1526 z"
         style="font-size:12.5px;line-height:1.25"
         id="path9"
         inkscape:connector-curvature="0" />
    </g>
  </g>
</svg>
