<?xml version="1.0" encoding="UTF-8" standalone="no"?>
<!-- Created with Inkscape (http://www.inkscape.org/) -->

<svg
   xmlns:dc="http://purl.org/dc/elements/1.1/"
   xmlns:cc="http://creativecommons.org/ns#"
   xmlns:rdf="http://www.w3.org/1999/02/22-rdf-syntax-ns#"
   xmlns:svg="http://www.w3.org/2000/svg"
   xmlns="http://www.w3.org/2000/svg"
   xmlns:sodipodi="http://sodipodi.sourceforge.net/DTD/sodipodi-0.dtd"
   xmlns:inkscape="http://www.inkscape.org/namespaces/inkscape"
   width="2.9000001mm"
   height="4mm"
   viewBox="0 0 10.275591 14.173228"
   id="svg2"
   version="1.1"
   inkscape:version="0.92.3 (2405546, 2018-03-11)"
   sodipodi:docname="ly.svg">
  <defs
     id="defs4" />
  <sodipodi:namedview
     id="base"
     pagecolor="#ffffff"
     bordercolor="#666666"
     borderopacity="1.0"
     inkscape:pageopacity="0.0"
     inkscape:pageshadow="2"
     inkscape:zoom="2.8"
     inkscape:cx="-205.7005"
     inkscape:cy="4.1349243"
     inkscape:document-units="px"
     inkscape:current-layer="layer1"
     showgrid="false"
     inkscape:window-width="1920"
     inkscape:window-height="1025"
     inkscape:window-x="0"
     inkscape:window-y="0"
     inkscape:window-maximized="1" />
  <metadata
     id="metadata7">
    <rdf:RDF>
      <cc:Work
         rdf:about="">
        <dc:format>image/svg+xml</dc:format>
        <dc:type
           rdf:resource="http://purl.org/dc/dcmitype/StillImage" />
        <dc:title />
      </cc:Work>
    </rdf:RDF>
  </metadata>
  <g
     inkscape:label="Layer 1"
     inkscape:groupmode="layer"
     id="layer1"
     transform="translate(0,-1038.189)">
    <g
       aria-label="y"
       style="font-style:normal;font-variant:normal;font-weight:500;font-stretch:normal;line-height:0%;font-family:'CMU Serif';-inkscape-font-specification:'CMU Serif Medium';text-align:center;letter-spacing:0px;word-spacing:0px;text-anchor:middle;fill:#ffffff;fill-opacity:1;stroke:none;stroke-width:1px;stroke-linecap:butt;stroke-linejoin:miter;stroke-opacity:1"
       id="text4133">
      <path
         d="m 2.0113029,1051.0083 q 0,-0.2625 0.1525879,-0.4028 0.1586914,-0.1343 0.3723145,-0.1343 0.2258301,0 0.3723144,0.1404 0.1525879,0.1465 0.1525879,0.3845 0,0.4639 -0.4882812,0.5249 0.2380371,0.2258 0.5859375,0.2258 0.3723144,0 0.6713867,-0.2746 0.3051758,-0.2747 0.4333496,-0.5371 0.1342774,-0.2625 0.3234863,-0.7386 0.177002,-0.3723 0.3112793,-0.7385 l -1.8737793,-4.5654 q -0.1220703,-0.2991 -0.3112793,-0.3662 -0.1892089,-0.067 -0.7019043,-0.067 v -0.3906 q 0.5615235,0.037 1.2145997,0.037 0.3845214,0 1.3610839,-0.037 v 0.3906 q -0.7019043,0 -0.7019043,0.3235 0,0.037 0.073242,0.2258 l 1.3916016,3.3631 1.2634277,-3.0762 q 0.073242,-0.177 0.073242,-0.2991 0,-0.5127 -0.5859375,-0.5371 v -0.3906 q 0.8239746,0.037 1.0864258,0.037 0.5126953,0 0.9338379,-0.037 v 0.3906 q -0.8361817,0 -1.159668,0.7996 l -2.2033691,5.3345 q -0.5981446,1.4221 -1.5991211,1.4282 -0.4760742,0 -0.8117676,-0.293 -0.3356934,-0.293 -0.3356934,-0.7202 z"
         style="font-size:12.5px;line-height:1.25"
         id="path9"
         inkscape:connector-curvature="0" />
    </g>
  </g>
</svg>
