<?xml version="1.0" encoding="UTF-8" standalone="no"?>
<!-- Created with Inkscape (http://www.inkscape.org/) -->

<svg
   xmlns:dc="http://purl.org/dc/elements/1.1/"
   xmlns:cc="http://creativecommons.org/ns#"
   xmlns:rdf="http://www.w3.org/1999/02/22-rdf-syntax-ns#"
   xmlns:svg="http://www.w3.org/2000/svg"
   xmlns="http://www.w3.org/2000/svg"
   xmlns:sodipodi="http://sodipodi.sourceforge.net/DTD/sodipodi-0.dtd"
   xmlns:inkscape="http://www.inkscape.org/namespaces/inkscape"
   width="2.9000001mm"
   height="4mm"
   viewBox="0 0 10.275591 14.173228"
   id="svg2"
   version="1.1"
   inkscape:version="0.92.3 (2405546, 2018-03-11)"
   sodipodi:docname="l3.svg">
  <defs
     id="defs4" />
  <sodipodi:namedview
     id="base"
     pagecolor="#ffffff"
     bordercolor="#666666"
     borderopacity="1.0"
     inkscape:pageopacity="0.0"
     inkscape:pageshadow="2"
     inkscape:zoom="0.70000001"
     inkscape:cx="-930.03791"
     inkscape:cy="93.583143"
     inkscape:document-units="px"
     inkscape:current-layer="layer1"
     showgrid="false"
     inkscape:window-width="1920"
     inkscape:window-height="1025"
     inkscape:window-x="0"
     inkscape:window-y="0"
     inkscape:window-maximized="1" />
  <metadata
     id="metadata7">
    <rdf:RDF>
      <cc:Work
         rdf:about="">
        <dc:format>image/svg+xml</dc:format>
        <dc:type
           rdf:resource="http://purl.org/dc/dcmitype/StillImage" />
        <dc:title />
      </cc:Work>
    </rdf:RDF>
  </metadata>
  <g
     inkscape:label="Layer 1"
     inkscape:groupmode="layer"
     id="layer1"
     transform="translate(0,-1038.189)">
    <g
       aria-label="3"
       style="font-style:normal;font-variant:normal;font-weight:500;font-stretch:normal;line-height:0%;font-family:'CMU Serif';-inkscape-font-specification:'CMU Serif Medium';text-align:center;letter-spacing:0px;word-spacing:0px;text-anchor:middle;fill:#000000;fill-opacity:1;stroke:none;stroke-width:1px;stroke-linecap:butt;stroke-linejoin:miter;stroke-opacity:1"
       id="text4133">
      <path
         d="m 2.4690666,1047.7734 q 0,-0.3723 0.2136231,-0.5493 0.213623,-0.177 0.4882812,-0.177 0.2868653,0 0.4882813,0.1892 0.2075195,0.1831 0.2075195,0.5066 0,0.3479 -0.2441406,0.5432 -0.2380371,0.1953 -0.579834,0.1465 0.2990723,0.5005 0.8483887,0.7263 0.5554199,0.2259 1.0681152,0.2259 0.5371094,0 0.970459,-0.4639 0.4394531,-0.4639 0.4394531,-1.5991 0,-0.9644 -0.378418,-1.5198 -0.3723144,-0.5554 -1.1108398,-0.5554 H 4.3306389 q -0.189209,0 -0.2441406,-0.018 -0.054932,-0.018 -0.054932,-0.1221 0,-0.1221 0.189209,-0.1465 0.189209,0 0.4882813,-0.037 0.7263183,-0.024 1.1108398,-0.6531 0.3479004,-0.5859 0.3479004,-1.4221 0,-0.7629 -0.3662109,-1.0803 -0.3601075,-0.3235 -0.8300782,-0.3235 -0.4394531,0 -0.9216308,0.1831 -0.4821778,0.1831 -0.7446289,0.592 0.7751464,0 0.7751464,0.6287 0,0.2747 -0.1770019,0.4578 -0.1708984,0.177 -0.4577637,0.177 -0.2746582,0 -0.4577637,-0.1709 -0.1831054,-0.177 -0.1831054,-0.4761 0,-0.7141 0.6347656,-1.2085 0.6408691,-0.4944 1.5808106,-0.4944 0.9277343,0 1.6113281,0.4883 0.6896972,0.4883 0.6896972,1.239 0,0.7385 -0.4882812,1.3428 -0.4882813,0.6042 -1.2634277,0.8545 0.9521484,0.1892 1.5197753,0.8362 0.567627,0.6408 0.567627,1.4282 0,0.9765 -0.769043,1.6968 -0.7690429,0.7141 -1.8920898,0.7141 -1.0375977,0 -1.7822266,-0.5616 -0.7446289,-0.5615 -0.7446289,-1.3977 z"
         style="font-size:12.5px;line-height:1.25;fill:#000000"
         id="path9"
         inkscape:connector-curvature="0" />
    </g>
  </g>
</svg>
