<?xml version="1.0" encoding="UTF-8" standalone="no"?>
<!-- Created with Inkscape (http://www.inkscape.org/) -->

<svg
   xmlns:dc="http://purl.org/dc/elements/1.1/"
   xmlns:cc="http://creativecommons.org/ns#"
   xmlns:rdf="http://www.w3.org/1999/02/22-rdf-syntax-ns#"
   xmlns:svg="http://www.w3.org/2000/svg"
   xmlns="http://www.w3.org/2000/svg"
   xmlns:sodipodi="http://sodipodi.sourceforge.net/DTD/sodipodi-0.dtd"
   xmlns:inkscape="http://www.inkscape.org/namespaces/inkscape"
   width="2.9000001mm"
   height="4mm"
   viewBox="0 0 10.275591 14.173228"
   id="svg2"
   version="1.1"
   inkscape:version="0.92.3 (2405546, 2018-03-11)"
   sodipodi:docname="ld.svg">
  <defs
     id="defs4" />
  <sodipodi:namedview
     id="base"
     pagecolor="#ffffff"
     bordercolor="#666666"
     borderopacity="1.0"
     inkscape:pageopacity="0.0"
     inkscape:pageshadow="2"
     inkscape:zoom="1.979899"
     inkscape:cx="-346.02295"
     inkscape:cy="41.525"
     inkscape:document-units="px"
     inkscape:current-layer="layer1"
     showgrid="false"
     inkscape:window-width="1920"
     inkscape:window-height="1025"
     inkscape:window-x="0"
     inkscape:window-y="0"
     inkscape:window-maximized="1" />
  <metadata
     id="metadata7">
    <rdf:RDF>
      <cc:Work
         rdf:about="">
        <dc:format>image/svg+xml</dc:format>
        <dc:type
           rdf:resource="http://purl.org/dc/dcmitype/StillImage" />
        <dc:title />
      </cc:Work>
    </rdf:RDF>
  </metadata>
  <g
     inkscape:label="Layer 1"
     inkscape:groupmode="layer"
     id="layer1"
     transform="translate(0,-1038.189)">
    <g
       aria-label="d"
       style="font-style:normal;font-variant:normal;font-weight:500;font-stretch:normal;line-height:0%;font-family:'CMU Serif';-inkscape-font-specification:'CMU Serif Medium';text-align:center;letter-spacing:0px;word-spacing:0px;text-anchor:middle;fill:#000000;fill-opacity:1;stroke:none;stroke-width:1px;stroke-linecap:butt;stroke-linejoin:miter;stroke-opacity:1"
       id="text4133">
      <path
         d="m 2.0296135,1046.7725 q 0,-1.1902 0.8300781,-2.0142 0.8300781,-0.824 1.953125,-0.824 0.9521485,0 1.5747071,0.7752 v -2.7039 q 0,-0.4639 -0.164795,-0.5798 -0.1586914,-0.116 -0.805664,-0.116 v -0.3906 l 1.8005371,-0.1343 v 7.5867 q 0,0.4638 0.1586914,0.5859 0.1647949,0.116 0.8117676,0.116 v 0.3845 l -1.8371582,0.1404 v -0.8301 q -0.6469727,0.824 -1.6723633,0.8301 -1.0742188,0 -1.8615723,-0.824 -0.7873535,-0.824 -0.7873535,-2.0019 z m 1.0375977,0.012 q 0,1.1596 0.3601074,1.7334 0.5004883,0.7995 1.3122558,0.7995 0.9277344,0 1.4770508,-0.8728 0.1403809,-0.2136 0.1342774,-0.4638 v -2.5635 q 0,-0.2503 -0.1342774,-0.4578 -0.5126953,-0.7507 -1.3488769,-0.7507 -0.8728028,0 -1.4160157,0.7995 -0.3845214,0.5982 -0.3845214,1.7762 z"
         style="font-size:12.5px;line-height:1.25;fill:#000000"
         id="path9"
         inkscape:connector-curvature="0" />
    </g>
  </g>
</svg>
