<?xml version="1.0" encoding="UTF-8" standalone="no"?>
<!-- Created with Inkscape (http://www.inkscape.org/) -->

<svg
   xmlns:dc="http://purl.org/dc/elements/1.1/"
   xmlns:cc="http://creativecommons.org/ns#"
   xmlns:rdf="http://www.w3.org/1999/02/22-rdf-syntax-ns#"
   xmlns:svg="http://www.w3.org/2000/svg"
   xmlns="http://www.w3.org/2000/svg"
   xmlns:sodipodi="http://sodipodi.sourceforge.net/DTD/sodipodi-0.dtd"
   xmlns:inkscape="http://www.inkscape.org/namespaces/inkscape"
   width="2.9000001mm"
   height="4mm"
   viewBox="0 0 10.275591 14.173228"
   id="svg2"
   version="1.1"
   inkscape:version="0.92.3 (2405546, 2018-03-11)"
   sodipodi:docname="ln.svg">
  <defs
     id="defs4" />
  <sodipodi:namedview
     id="base"
     pagecolor="#ffffff"
     bordercolor="#666666"
     borderopacity="1.0"
     inkscape:pageopacity="0.0"
     inkscape:pageshadow="2"
     inkscape:zoom="3.959798"
     inkscape:cx="-159.94831"
     inkscape:cy="-2.4757367"
     inkscape:document-units="px"
     inkscape:current-layer="layer1"
     showgrid="false"
     inkscape:window-width="1920"
     inkscape:window-height="1025"
     inkscape:window-x="0"
     inkscape:window-y="0"
     inkscape:window-maximized="1" />
  <metadata
     id="metadata7">
    <rdf:RDF>
      <cc:Work
         rdf:about="">
        <dc:format>image/svg+xml</dc:format>
        <dc:type
           rdf:resource="http://purl.org/dc/dcmitype/StillImage" />
        <dc:title />
      </cc:Work>
    </rdf:RDF>
  </metadata>
  <g
     inkscape:label="Layer 1"
     inkscape:groupmode="layer"
     id="layer1"
     transform="translate(0,-1038.189)">
    <g
       aria-label="n"
       style="font-style:normal;font-variant:normal;font-weight:500;font-stretch:normal;line-height:0%;font-family:'CMU Serif';-inkscape-font-specification:'CMU Serif Medium';text-align:center;letter-spacing:0px;word-spacing:0px;text-anchor:middle;fill:#000000;fill-opacity:1;stroke:none;stroke-width:1px;stroke-linecap:butt;stroke-linejoin:miter;stroke-opacity:1"
       id="text4133">
      <path
         d="m 2.0051994,1049.458 v -0.3845 q 0.6652832,0 0.8178711,-0.079 0.1525879,-0.085 0.1525879,-0.4882 v -3.3509 q 0,-0.4638 -0.1647949,-0.5798 -0.1586914,-0.116 -0.8056641,-0.116 v -0.3906 l 1.7578125,-0.1343 v 1.3123 q 0.5859375,-1.3123 1.8493653,-1.3123 0.9399414,0 1.3122558,0.4639 0.2746582,0.3113 0.3295899,0.6592 0.061035,0.3479 0.061035,1.2512 v 2.3865 q 0.012207,0.2624 0.2136231,0.3235 0.201416,0.055 0.7629394,0.055 v 0.3845 q -1.2756347,-0.037 -1.4038086,-0.037 -0.097656,0 -1.4099121,0.037 v -0.3845 q 0.6652832,0 0.8178711,-0.079 0.1586914,-0.085 0.1586914,-0.4882 v -2.9114 q 0,-0.6348 -0.1953125,-1.0071 -0.1953125,-0.3784 -0.7324219,-0.3784 -0.6469726,0 -1.1657714,0.5432 -0.5187989,0.5432 -0.5187989,1.4587 v 2.295 q 0,0.4028 0.1525879,0.4882 0.1586914,0.079 0.8178711,0.079 v 0.3845 q -1.2756347,-0.037 -1.3977051,-0.037 -0.097656,0 -1.4099121,0.037 z"
         style="font-size:12.5px;line-height:1.25;fill:#000000"
         id="path9"
         inkscape:connector-curvature="0" />
    </g>
  </g>
</svg>
