<?xml version="1.0" encoding="UTF-8" standalone="no"?>
<!-- Created with Inkscape (http://www.inkscape.org/) -->

<svg
   xmlns:dc="http://purl.org/dc/elements/1.1/"
   xmlns:cc="http://creativecommons.org/ns#"
   xmlns:rdf="http://www.w3.org/1999/02/22-rdf-syntax-ns#"
   xmlns:svg="http://www.w3.org/2000/svg"
   xmlns="http://www.w3.org/2000/svg"
   xmlns:sodipodi="http://sodipodi.sourceforge.net/DTD/sodipodi-0.dtd"
   xmlns:inkscape="http://www.inkscape.org/namespaces/inkscape"
   width="2.9000001mm"
   height="4mm"
   viewBox="0 0 10.275591 14.173228"
   id="svg2"
   version="1.1"
   inkscape:version="0.92.3 (2405546, 2018-03-11)"
   sodipodi:docname="l6.svg">
  <defs
     id="defs4" />
  <sodipodi:namedview
     id="base"
     pagecolor="#ffffff"
     bordercolor="#666666"
     borderopacity="1.0"
     inkscape:pageopacity="0.0"
     inkscape:pageshadow="2"
     inkscape:zoom="0.7"
     inkscape:cx="-900.74865"
     inkscape:cy="99.441006"
     inkscape:document-units="px"
     inkscape:current-layer="layer1"
     showgrid="false"
     inkscape:window-width="1920"
     inkscape:window-height="1025"
     inkscape:window-x="0"
     inkscape:window-y="0"
     inkscape:window-maximized="1" />
  <metadata
     id="metadata7">
    <rdf:RDF>
      <cc:Work
         rdf:about="">
        <dc:format>image/svg+xml</dc:format>
        <dc:type
           rdf:resource="http://purl.org/dc/dcmitype/StillImage" />
        <dc:title />
      </cc:Work>
    </rdf:RDF>
  </metadata>
  <g
     inkscape:label="Layer 1"
     inkscape:groupmode="layer"
     id="layer1"
     transform="translate(0,-1038.189)">
    <g
       aria-label="6"
       style="font-style:normal;font-variant:normal;font-weight:500;font-stretch:normal;line-height:0%;font-family:'CMU Serif';-inkscape-font-specification:'CMU Serif Medium';text-align:center;letter-spacing:0px;word-spacing:0px;text-anchor:middle;fill:#000000;fill-opacity:1;stroke:none;stroke-width:1px;stroke-linecap:butt;stroke-linejoin:miter;stroke-opacity:1"
       id="text4133">
      <path
         d="m 2.4690666,1045.509 q 0,-1.9653 1.0009766,-3.1677 1.0009765,-1.2085 2.2888183,-1.2085 0.7507325,0 1.1657715,0.3845 0.4211426,0.3785 0.4211426,0.9644 0,0.3235 -0.189209,0.4639 -0.189209,0.1403 -0.3845215,0.1403 -0.22583,0 -0.402832,-0.1526 -0.1770019,-0.1525 -0.1770019,-0.4272 0,-0.5615 0.6896972,-0.5615 -0.3234863,-0.5005 -1.0986328,-0.5005 -0.2380371,0 -0.4821777,0.073 -0.2441407,0.067 -0.5615235,0.2991 -0.3173828,0.2319 -0.5615234,0.5982 -0.2441406,0.3662 -0.4150391,1.0559 -0.1708984,0.6897 -0.1708984,1.5869 v 0.299 q 0.5126953,-1.239 1.5625,-1.2329 1.0498047,0 1.776123,0.7996 0.7263184,0.7996 0.7263184,1.9836 0,1.2146 -0.7568359,2.0203 -0.756836,0.8057 -1.8188477,0.8057 -0.4760742,0 -0.9094238,-0.2014 -0.4272461,-0.1954 -0.8300781,-0.647 -0.3967286,-0.4517 -0.6347657,-1.3184 -0.2380371,-0.8667 -0.2380371,-2.0569 z m 1.147461,1.1231 q 0,1.2268 0.22583,1.8127 0.036621,0.098 0.1159668,0.232 0.085449,0.1342 0.2258301,0.3112 0.1464844,0.1709 0.3845215,0.2869 0.2380371,0.1099 0.5126953,0.1099 0.8361816,0 1.2390137,-0.8118 0.213623,-0.4517 0.213623,-1.6785 0,-1.2512 -0.2258301,-1.709 -0.3845214,-0.7751 -1.1657714,-0.7751 -0.5249024,0 -0.8911133,0.3601 -0.3601074,0.3601 -0.5004883,0.8423 -0.1342773,0.4822 -0.1342773,1.0193 z"
         style="font-size:12.5px;line-height:1.25;fill:#000000"
         id="path9"
         inkscape:connector-curvature="0" />
    </g>
  </g>
</svg>
