<?xml version="1.0" encoding="UTF-8" standalone="no"?>
<!-- Created with Inkscape (http://www.inkscape.org/) -->

<svg
   xmlns:dc="http://purl.org/dc/elements/1.1/"
   xmlns:cc="http://creativecommons.org/ns#"
   xmlns:rdf="http://www.w3.org/1999/02/22-rdf-syntax-ns#"
   xmlns:svg="http://www.w3.org/2000/svg"
   xmlns="http://www.w3.org/2000/svg"
   xmlns:sodipodi="http://sodipodi.sourceforge.net/DTD/sodipodi-0.dtd"
   xmlns:inkscape="http://www.inkscape.org/namespaces/inkscape"
   width="2.9000001mm"
   height="4mm"
   viewBox="0 0 10.275591 14.173228"
   id="svg2"
   version="1.1"
   inkscape:version="0.92.3 (2405546, 2018-03-11)"
   sodipodi:docname="lk.svg">
  <defs
     id="defs4" />
  <sodipodi:namedview
     id="base"
     pagecolor="#ffffff"
     bordercolor="#666666"
     borderopacity="1.0"
     inkscape:pageopacity="0.0"
     inkscape:pageshadow="2"
     inkscape:zoom="5.6"
     inkscape:cx="-114.37682"
     inkscape:cy="12.057851"
     inkscape:document-units="px"
     inkscape:current-layer="layer1"
     showgrid="false"
     inkscape:window-width="1920"
     inkscape:window-height="1025"
     inkscape:window-x="0"
     inkscape:window-y="0"
     inkscape:window-maximized="1" />
  <metadata
     id="metadata7">
    <rdf:RDF>
      <cc:Work
         rdf:about="">
        <dc:format>image/svg+xml</dc:format>
        <dc:type
           rdf:resource="http://purl.org/dc/dcmitype/StillImage" />
        <dc:title />
      </cc:Work>
    </rdf:RDF>
  </metadata>
  <g
     inkscape:label="Layer 1"
     inkscape:groupmode="layer"
     id="layer1"
     transform="translate(0,-1038.189)">
    <g
       aria-label="k"
       style="font-style:normal;font-variant:normal;font-weight:500;font-stretch:normal;line-height:0%;font-family:'CMU Serif';-inkscape-font-specification:'CMU Serif Medium';text-align:center;letter-spacing:0px;word-spacing:0px;text-anchor:middle;fill:#000000;fill-opacity:1;stroke:none;stroke-width:1px;stroke-linecap:butt;stroke-linejoin:miter;stroke-opacity:1"
       id="text4133">
      <path
         d="m 2.1211662,1049.458 v -0.3845 q 0.6652832,0 0.8178711,-0.079 0.1586914,-0.085 0.1586914,-0.4882 v -6.5003 q 0,-0.4639 -0.1647949,-0.5798 -0.1586914,-0.116 -0.8117676,-0.116 v -0.3906 l 1.8005371,-0.1343 v 5.9998 l 1.7639161,-1.5259 q 0.2746582,-0.238 0.2746582,-0.4883 0,-0.2869 -0.3601075,-0.3113 v -0.3906 q 0.5249024,0.037 1.3977051,0.037 0.5126953,0 0.8728027,-0.037 v 0.3906 q -0.7873535,0.037 -1.574707,0.6714 -0.1770019,0.1404 -0.5981445,0.5066 -0.4150391,0.3601 -0.4150391,0.3967 0,0.012 0.012207,0.043 0.018311,0.03 0.042725,0.055 0.024414,0.024 0.024414,0.037 l 1.5869141,2.24 q 0.3234863,0.4517 0.5615234,0.5615 0.2380371,0.1038 0.6530762,0.1038 v 0.3845 q -0.5371094,-0.037 -1.0925293,-0.037 -0.2990723,0 -1.348877,0.037 v -0.3845 q 0.4516602,0 0.4516602,-0.293 0,-0.2014 -1.0131836,-1.5991 -0.073242,-0.098 -0.2380371,-0.3113 -0.1525879,-0.2258 -0.2380371,-0.3357 l -0.7995606,0.6836 v 1.2879 q 0,0.4028 0.1525879,0.4882 0.1586914,0.079 0.8239746,0.079 v 0.3845 q -0.7507324,-0.037 -1.373291,-0.037 -0.1281738,0 -1.3671875,0.037 z"
         style="font-size:12.5px;line-height:1.25;fill:#000000"
         id="path9"
         inkscape:connector-curvature="0" />
    </g>
  </g>
</svg>
