<?xml version="1.0" encoding="UTF-8" standalone="no"?>
<!-- Created with Inkscape (http://www.inkscape.org/) -->

<svg
   xmlns:dc="http://purl.org/dc/elements/1.1/"
   xmlns:cc="http://creativecommons.org/ns#"
   xmlns:rdf="http://www.w3.org/1999/02/22-rdf-syntax-ns#"
   xmlns:svg="http://www.w3.org/2000/svg"
   xmlns="http://www.w3.org/2000/svg"
   xmlns:sodipodi="http://sodipodi.sourceforge.net/DTD/sodipodi-0.dtd"
   xmlns:inkscape="http://www.inkscape.org/namespaces/inkscape"
   width="2.9000001mm"
   height="4mm"
   viewBox="0 0 10.275591 14.173228"
   id="svg2"
   version="1.1"
   inkscape:version="0.92.3 (2405546, 2018-03-11)"
   sodipodi:docname="lp.svg">
  <defs
     id="defs4" />
  <sodipodi:namedview
     id="base"
     pagecolor="#ffffff"
     bordercolor="#666666"
     borderopacity="1.0"
     inkscape:pageopacity="0.0"
     inkscape:pageshadow="2"
     inkscape:zoom="2.8"
     inkscape:cx="-215.00836"
     inkscape:cy="27.775591"
     inkscape:document-units="px"
     inkscape:current-layer="layer1"
     showgrid="false"
     inkscape:window-width="1920"
     inkscape:window-height="1025"
     inkscape:window-x="0"
     inkscape:window-y="0"
     inkscape:window-maximized="1" />
  <metadata
     id="metadata7">
    <rdf:RDF>
      <cc:Work
         rdf:about="">
        <dc:format>image/svg+xml</dc:format>
        <dc:type
           rdf:resource="http://purl.org/dc/dcmitype/StillImage" />
        <dc:title />
      </cc:Work>
    </rdf:RDF>
  </metadata>
  <g
     inkscape:label="Layer 1"
     inkscape:groupmode="layer"
     id="layer1"
     transform="translate(0,-1038.189)">
    <g
       aria-label="p"
       style="font-style:normal;font-variant:normal;font-weight:500;font-stretch:normal;line-height:0%;font-family:'CMU Serif';-inkscape-font-specification:'CMU Serif Medium';text-align:center;letter-spacing:0px;word-spacing:0px;text-anchor:middle;fill:#000000;fill-opacity:1;stroke:none;stroke-width:1px;stroke-linecap:butt;stroke-linejoin:miter;stroke-opacity:1"
       id="text4133">
      <path
         d="m 1.9502678,1051.4966 q 0.6652832,0 0.8178711,-0.085 0.1586914,-0.079 0.1586914,-0.476 v -5.8533 q 0,-0.4151 -0.1586914,-0.5188 -0.1525879,-0.1038 -0.8178711,-0.1038 v -0.3906 l 1.8005371,-0.1343 v 0.824 q 0.7507324,-0.824 1.751709,-0.824 1.0620117,0 1.8371582,0.824 0.7751465,0.824 0.7751465,2.002 0,1.1901 -0.8239746,2.0141 -0.8239746,0.824 -1.9653321,0.824 -0.6225586,0 -1.0437011,-0.3174 -0.4150391,-0.3235 -0.4943848,-0.5615 v 0.1159 2.0997 q 0,0.4028 0.1586914,0.4821 0.1586914,0.079 0.8178711,0.079 v 0.3845 q -1.3122559,-0.037 -1.4099121,-0.037 -0.1220703,0 -1.4038086,0.037 z m 1.8371582,-3.4607 q 0,0.1892 0.024414,0.2563 0.030518,0.067 0.1525878,0.2686 0.4943848,0.7568 1.3000489,0.7568 0.0061,0 0.012207,0 0.7141113,0 1.2573242,-0.7263 0.5432129,-0.7324 0.5432129,-1.831 0,-1.0499 -0.4943847,-1.7823 -0.4943848,-0.7324 -1.1779786,-0.7324 -0.4882812,0 -0.9155273,0.2625 -0.4272461,0.2624 -0.7019043,0.7385 z"
         style="font-size:12.5px;line-height:1.25;fill:#000000"
         id="path9"
         inkscape:connector-curvature="0" />
    </g>
  </g>
</svg>
