<?xml version="1.0" encoding="UTF-8" standalone="no"?>
<svg
   xmlns:ooo="http://xml.openoffice.org/svg/export"
   xmlns:dc="http://purl.org/dc/elements/1.1/"
   xmlns:cc="http://creativecommons.org/ns#"
   xmlns:rdf="http://www.w3.org/1999/02/22-rdf-syntax-ns#"
   xmlns:svg="http://www.w3.org/2000/svg"
   xmlns="http://www.w3.org/2000/svg"
   xmlns:sodipodi="http://sodipodi.sourceforge.net/DTD/sodipodi-0.dtd"
   xmlns:inkscape="http://www.inkscape.org/namespaces/inkscape"
   version="1.2"
   width="59.359997mm"
   height="63.240002mm"
   viewBox="0 0 5935.9997 6324.0002"
   preserveAspectRatio="xMidYMid"
   xml:space="preserve"
   id="svg2"
   inkscape:version="0.91 r13725"
   sodipodi:docname="Untitled 1.svg"
   style="fill-rule:evenodd;stroke-width:28.22200012;stroke-linejoin:round"><metadata
     id="metadata190"><rdf:RDF><cc:Work
         rdf:about=""><dc:format>image/svg+xml</dc:format><dc:type
           rdf:resource="http://purl.org/dc/dcmitype/StillImage" /><dc:title></dc:title></cc:Work></rdf:RDF></metadata><sodipodi:namedview
     pagecolor="#ffffff"
     bordercolor="#666666"
     borderopacity="1"
     objecttolerance="10"
     gridtolerance="10"
     guidetolerance="10"
     inkscape:pageopacity="0"
     inkscape:pageshadow="2"
     inkscape:window-width="1920"
     inkscape:window-height="1026"
     id="namedview188"
     showgrid="false"
     fit-margin-top="0"
     fit-margin-left="0"
     fit-margin-right="0"
     fit-margin-bottom="0"
     inkscape:zoom="1.7940591"
     inkscape:cx="206.04436"
     inkscape:cy="31.595376"
     inkscape:window-x="0"
     inkscape:window-y="0"
     inkscape:window-maximized="1"
     inkscape:current-layer="id1" /><defs
     class="ClipPathGroup"
     id="defs4"><clipPath
       id="presentation_clip_path"
       clipPathUnits="userSpaceOnUse"><rect
         x="0"
         y="0"
         width="21000"
         height="29700"
         id="rect7" /></clipPath><defs
       id="defs74"><mask
         id="mask1"><g
           id="g77"><defs
             id="defs79"><linearGradient
               gradientUnits="userSpaceOnUse"
               y2="8197"
               x2="4332"
               y1="7561"
               x1="4332"
               id="gradient1"><stop
                 id="stop82"
                 style="stop-color:rgb(193,193,193)"
                 offset="0.5" /><stop
                 id="stop84"
                 style="stop-color:rgb(193,193,193)"
                 offset="0.5" /><stop
                 id="stop86"
                 style="stop-color:rgb(193,193,193)"
                 offset="1" /><stop
                 id="stop88"
                 style="stop-color:rgb(193,193,193)"
                 offset="1" /></linearGradient></defs><path
             inkscape:connector-curvature="0"
             id="path90"
             d="m 4045,7561 575,0 0,636 -575,0 0,-636 z"
             style="fill:url(#gradient1)" /></g></mask></defs><defs
       id="defs126"><mask
         id="mask2"><g
           id="g129"><defs
             id="defs131"><linearGradient
               gradientUnits="userSpaceOnUse"
               y2="7993"
               x2="4617"
               y1="7356"
               x1="4617"
               id="gradient2"><stop
                 id="stop134"
                 style="stop-color:rgb(193,193,193)"
                 offset="0.5" /><stop
                 id="stop136"
                 style="stop-color:rgb(193,193,193)"
                 offset="0.5" /><stop
                 id="stop138"
                 style="stop-color:rgb(193,193,193)"
                 offset="1" /><stop
                 id="stop140"
                 style="stop-color:rgb(193,193,193)"
                 offset="1" /></linearGradient></defs><path
             inkscape:connector-curvature="0"
             id="path142"
             d="m 4329,7356 576,0 0,637 -576,0 0,-637 z"
             style="fill:url(#gradient2)" /></g></mask></defs></defs><defs
     class="TextShapeIndex"
     id="defs9"><g
       ooo:slide="id1"
       ooo:id-list="id3 id4"
       id="g11" /></defs><defs
     class="EmbeddedBulletChars"
     id="defs13"><g
       id="bullet-char-template(57356)"
       transform="scale(4.8828125e-4,-4.8828125e-4)"><path
         d="M 580,1141 1163,571 580,0 -4,571 580,1141 Z"
         id="path16"
         inkscape:connector-curvature="0" /></g><g
       id="bullet-char-template(57354)"
       transform="scale(4.8828125e-4,-4.8828125e-4)"><path
         d="m 8,1128 1129,0 L 1137,0 8,0 8,1128 Z"
         id="path19"
         inkscape:connector-curvature="0" /></g><g
       id="bullet-char-template(10146)"
       transform="scale(4.8828125e-4,-4.8828125e-4)"><path
         d="M 174,0 602,739 174,1481 1456,739 174,0 Z m 1184,739 -1049,607 350,-607 699,0 z"
         id="path22"
         inkscape:connector-curvature="0" /></g><g
       id="bullet-char-template(10132)"
       transform="scale(4.8828125e-4,-4.8828125e-4)"><path
         d="M 2015,739 1276,0 717,0 l 543,543 -1086,0 0,393 1086,0 -543,545 557,0 741,-742 z"
         id="path25"
         inkscape:connector-curvature="0" /></g><g
       id="bullet-char-template(10007)"
       transform="scale(4.8828125e-4,-4.8828125e-4)"><path
         d="m 0,-2 c -7,16 -16,29 -25,39 l 381,530 c -94,256 -141,385 -141,387 0,25 13,38 40,38 9,0 21,-2 34,-5 21,4 42,12 65,25 l 27,-13 111,-251 280,301 64,-25 24,25 c 21,-10 41,-24 62,-43 C 886,937 835,863 770,784 769,783 710,716 594,584 L 774,223 c 0,-27 -21,-55 -63,-84 l 16,-20 C 717,90 699,76 672,76 641,76 570,178 457,381 L 164,-76 c -22,-34 -53,-51 -92,-51 -42,0 -63,17 -64,51 -7,9 -10,24 -10,44 0,9 1,19 2,30 z"
         id="path28"
         inkscape:connector-curvature="0" /></g><g
       id="bullet-char-template(10004)"
       transform="scale(4.8828125e-4,-4.8828125e-4)"><path
         d="M 285,-33 C 182,-33 111,30 74,156 52,228 41,333 41,471 c 0,78 14,145 41,201 34,71 87,106 158,106 53,0 88,-31 106,-94 l 23,-176 c 8,-64 28,-97 59,-98 l 735,706 c 11,11 33,17 66,17 42,0 63,-15 63,-46 l 0,-122 c 0,-36 -10,-64 -30,-84 L 442,47 C 390,-6 338,-33 285,-33 Z"
         id="path31"
         inkscape:connector-curvature="0" /></g><g
       id="bullet-char-template(9679)"
       transform="scale(4.8828125e-4,-4.8828125e-4)"><path
         d="M 813,0 C 632,0 489,54 383,161 276,268 223,411 223,592 c 0,181 53,324 160,431 106,107 249,161 430,161 179,0 323,-54 432,-161 108,-107 162,-251 162,-431 0,-180 -54,-324 -162,-431 C 1136,54 992,0 813,0 Z"
         id="path34"
         inkscape:connector-curvature="0" /></g><g
       id="bullet-char-template(8226)"
       transform="scale(4.8828125e-4,-4.8828125e-4)"><path
         d="m 346,457 c -73,0 -137,26 -191,78 -54,51 -81,114 -81,188 0,73 27,136 81,188 54,52 118,78 191,78 73,0 134,-26 185,-79 51,-51 77,-114 77,-187 0,-75 -25,-137 -76,-188 -50,-52 -112,-78 -186,-78 z"
         id="path37"
         inkscape:connector-curvature="0" /></g><g
       id="bullet-char-template(8211)"
       transform="scale(4.8828125e-4,-4.8828125e-4)"><path
         d="m -4,459 1139,0 0,147 -1139,0 0,-147 z"
         id="path40"
         inkscape:connector-curvature="0" /></g></defs><defs
     class="TextEmbeddedBitmaps"
     id="defs42" /><g
     id="g44"
     transform="translate(-3211,-8586.9998)"><g
       id="id2"
       class="Master_Slide"><g
         id="bg-id2"
         class="Background" /><g
         id="bo-id2"
         class="BackgroundObjects" /></g></g><g
     id="g51"
     transform="matrix(1.2286153,0,0,1.1728365,-3856.0963,-7359.9458)"><g
       clip-path="url(#presentation_clip_path)"
       class="Slide"
       id="id1"><g
         class="com.sun.star.drawing.OpenFreeHandShape"
         id="g56"><g
           id="id3"><rect
             class="BoundingBox"
             x="6059"
             y="9869"
             width="2101"
             height="1818"
             id="rect59"
             style="fill:none;stroke:none" /><path
             d="m 6209,10019 c 172,133 296,310 484,428 169,105 200,282 136,427 -101,228 200,322 348,441 156,125 376,143 574,194 l 166,26 91,0"
             id="path61"
             inkscape:connector-curvature="0"
             style="fill:none;stroke:#999999;stroke-width:300;stroke-linejoin:round" /></g></g><rect
         class="BoundingBox"
         x="3215"
         y="6526"
         width="5932"
         height="8385"
         id="rect66"
         style="fill:none;stroke:none" /><path
         d="m 4971,8383 -423,302 -767,-1014 847,-604 766,1014 -423,302 z"
         id="path68"
         inkscape:connector-curvature="0"
         style="fill:#b3b3b3;stroke:none" /><path
         d="m 6019,9786 498,-355 c 48,-34 58,-100 22,-147 L 5435,7823 c -36,-47 -103,-57 -152,-23 l -995,710 c -48,35 -58,101 -23,148 l 1105,1460 c 35,47 103,58 151,24 l 498,-356 z"
         id="path70"
         inkscape:connector-curvature="0"
         style="fill:#1a1a1a;stroke:none" /><path
         d="m 5395,10135 449,130 337,151 503,-388 -102,-344 -34,-367 -1153,818 z"
         id="path72"
         inkscape:connector-curvature="0"
         style="fill:#1a1a1a;stroke:none" /><g
         style="fill:#666666"
         id="g92"
         mask="url(#mask1)"><path
           d="m 4126,7793 -32,24 -96,-127 64,-47 96,127 -32,23 z"
           id="path94"
           inkscape:connector-curvature="0"
           style="fill:#666666;stroke:none" /><path
           d="m 4256,7701 -33,23 -96,-127 65,-46 96,127 -32,23 z"
           id="path96"
           inkscape:connector-curvature="0"
           style="fill:#666666;stroke:none" /><path
           d="m 4174,7857 -32,23 -96,-127 64,-46 96,127 -32,23 z"
           id="path98"
           inkscape:connector-curvature="0"
           style="fill:#666666;stroke:none" /><path
           d="m 4304,7764 -33,24 -96,-127 65,-47 96,127 -32,23 z"
           id="path100"
           inkscape:connector-curvature="0"
           style="fill:#666666;stroke:none" /><path
           d="m 4222,7920 -32,23 -96,-126 64,-47 96,127 -32,23 z"
           id="path102"
           inkscape:connector-curvature="0"
           style="fill:#666666;stroke:none" /><path
           d="m 4352,7828 -33,23 -96,-127 65,-46 96,127 -32,23 z"
           id="path104"
           inkscape:connector-curvature="0"
           style="fill:#666666;stroke:none" /><path
           d="m 4270,7984 -32,23 -96,-127 64,-46 96,127 -32,23 z"
           id="path106"
           inkscape:connector-curvature="0"
           style="fill:#666666;stroke:none" /><path
           d="m 4400,7891 -33,24 -96,-127 65,-47 96,127 -32,23 z"
           id="path108"
           inkscape:connector-curvature="0"
           style="fill:#666666;stroke:none" /><path
           d="m 4318,8047 -32,23 -96,-127 64,-46 96,127 -32,23 z"
           id="path110"
           inkscape:connector-curvature="0"
           style="fill:#666666;stroke:none" /><path
           d="m 4448,7955 -33,23 -96,-127 65,-46 96,127 -32,23 z"
           id="path112"
           inkscape:connector-curvature="0"
           style="fill:#666666;stroke:none" /><path
           d="m 4366,8111 -32,23 -96,-127 64,-46 96,127 -32,23 z"
           id="path114"
           inkscape:connector-curvature="0"
           style="fill:#666666;stroke:none" /><path
           d="m 4496,8018 -33,23 -96,-126 65,-47 96,127 -32,23 z"
           id="path116"
           inkscape:connector-curvature="0"
           style="fill:#666666;stroke:none" /><path
           d="m 4414,8174 -32,23 -96,-127 64,-46 96,127 -32,23 z"
           id="path118"
           inkscape:connector-curvature="0"
           style="fill:#666666;stroke:none" /><path
           d="m 4544,8082 -33,23 -96,-127 65,-46 96,127 -32,23 z"
           id="path120"
           inkscape:connector-curvature="0"
           style="fill:#666666;stroke:none" /><path
           d="m 4462,8238 -32,23 -96,-127 64,-46 96,127 -32,23 z"
           id="path122"
           inkscape:connector-curvature="0"
           style="fill:#666666;stroke:none" /><path
           d="m 4592,8145 -33,23 -96,-127 65,-46 96,127 -32,23 z"
           id="path124"
           inkscape:connector-curvature="0"
           style="fill:#666666;stroke:none" /></g><g
         style="fill:#666666"
         id="g144"
         mask="url(#mask2)"><path
           d="m 4410,7589 -32,23 -96,-127 65,-46 96,127 -33,23 z"
           id="path146"
           inkscape:connector-curvature="0"
           style="fill:#666666;stroke:none" /><path
           d="m 4540,7497 -32,23 -96,-127 64,-47 96,127 -32,24 z"
           id="path148"
           inkscape:connector-curvature="0"
           style="fill:#666666;stroke:none" /><path
           d="m 4458,7653 -32,23 -96,-127 65,-47 96,127 -33,24 z"
           id="path150"
           inkscape:connector-curvature="0"
           style="fill:#666666;stroke:none" /><path
           d="m 4588,7560 -32,23 -96,-127 64,-46 96,127 -32,23 z"
           id="path152"
           inkscape:connector-curvature="0"
           style="fill:#666666;stroke:none" /><path
           d="m 4506,7716 -32,23 -96,-127 65,-46 96,127 -33,23 z"
           id="path154"
           inkscape:connector-curvature="0"
           style="fill:#666666;stroke:none" /><path
           d="m 4636,7624 -32,23 -96,-127 64,-47 96,127 -32,24 z"
           id="path156"
           inkscape:connector-curvature="0"
           style="fill:#666666;stroke:none" /><path
           d="m 4554,7780 -32,23 -96,-127 65,-47 96,127 -33,24 z"
           id="path158"
           inkscape:connector-curvature="0"
           style="fill:#666666;stroke:none" /><path
           d="m 4684,7687 -32,23 -96,-127 64,-46 96,127 -32,23 z"
           id="path160"
           inkscape:connector-curvature="0"
           style="fill:#666666;stroke:none" /><path
           d="m 4602,7843 -32,23 -96,-127 65,-46 96,127 -33,23 z"
           id="path162"
           inkscape:connector-curvature="0"
           style="fill:#666666;stroke:none" /><path
           d="m 4732,7751 -32,23 -96,-127 64,-47 96,127 -32,24 z"
           id="path164"
           inkscape:connector-curvature="0"
           style="fill:#666666;stroke:none" /><path
           d="m 4650,7906 -32,24 -96,-127 65,-47 96,127 -33,23 z"
           id="path166"
           inkscape:connector-curvature="0"
           style="fill:#666666;stroke:none" /><path
           d="m 4780,7814 -32,23 -96,-127 64,-46 96,127 -32,23 z"
           id="path168"
           inkscape:connector-curvature="0"
           style="fill:#666666;stroke:none" /><path
           d="m 4698,7970 -32,23 -96,-127 65,-46 96,127 -33,23 z"
           id="path170"
           inkscape:connector-curvature="0"
           style="fill:#666666;stroke:none" /><path
           d="m 4828,7877 -32,24 -96,-127 64,-47 96,127 -32,23 z"
           id="path172"
           inkscape:connector-curvature="0"
           style="fill:#666666;stroke:none" /><path
           d="m 4746,8033 -32,24 -96,-127 65,-47 96,127 -33,23 z"
           id="path174"
           inkscape:connector-curvature="0"
           style="fill:#666666;stroke:none" /><path
           d="m 4876,7941 -32,23 -96,-127 64,-46 96,127 -32,23 z"
           id="path176"
           inkscape:connector-curvature="0"
           style="fill:#666666;stroke:none" /></g><path
         d="m 4984,9168 287,403 c 61,85 178,104 262,42 l 445,-329 c 84,-62 102,-181 41,-266 l -574,-804 c -61,-86 -179,-104 -262,-43 l -445,329 c -84,62 -103,181 -42,266 l 288,402 z"
         id="path178"
         inkscape:connector-curvature="0"
         style="fill:#808080;fill-opacity:0.23900003;stroke:#ffffff;stroke-opacity:0.23900003" /><path
         style="opacity:0.24200003;fill:#1a1a1a;fill-opacity:1;stroke-width:0;stroke-miterlimit:4;stroke-dasharray:none"
         d="m 201.91964,223.74945 c -15.607,-2.70888 -24.50474,-5.52343 -29.82065,-9.43292 -0.9197,-0.67637 -3.83277,-2.52573 -6.47349,-4.10968 -5.92822,-3.55584 -9.10001,-6.57556 -10.84639,-10.32634 -1.63785,-3.51773 -1.69379,-5.89726 -0.23807,-10.12838 2.11191,-6.13835 1.2892,-8.16531 -5.16129,-12.71624 -4.81229,-3.39515 -11.88435,-9.30087 -11.13773,-9.30087 0.23926,0 2.67595,-1.63247 5.41486,-3.62771 l 4.97985,-3.62772 2.25541,2.17172 c 1.24048,1.19445 4.40561,3.68544 7.03362,5.53554 5.13287,3.6135 7.17315,5.87612 8.97809,9.95648 1.52506,3.44765 1.61704,8.87654 0.22751,13.42751 l -1.06586,3.4909 1.34456,1.43235 c 0.73951,0.78779 3.4766,2.71535 6.08242,4.28347 2.60582,1.56812 5.69657,3.53988 6.86834,4.3817 1.17176,0.84181 3.30379,1.92019 4.73786,2.39639 4.94203,1.64108 17.66792,4.27427 22.25556,4.60503 l 4.59851,0.33154 0,6.04856 0,6.04856 -2.92632,-0.0571 c -1.60948,-0.0314 -4.80754,-0.38366 -7.10679,-0.78274 z"
         id="path4518"
         inkscape:connector-curvature="0"
         transform="matrix(22.970755,0,0,24.063218,3138.571,6275.3383)" /><path
         style="opacity:0.24200003;fill:#1a1a1a;fill-opacity:1;stroke-width:0;stroke-miterlimit:4;stroke-dasharray:none"
         d=""
         id="path4520"
         inkscape:connector-curvature="0"
         transform="matrix(22.970755,0,0,24.063218,3138.571,6275.3383)" /><path
         style="opacity:0.24200003;fill:#1a1a1a;fill-opacity:1;stroke-width:0;stroke-miterlimit:4;stroke-dasharray:none"
         d="m 206.6575,224.23343 c -7.99172,-0.90265 -21.48869,-3.97407 -26.91534,-6.12496 -4.72816,-1.87404 -19.54161,-11.31242 -21.81051,-13.89656 -4.07866,-4.64534 -4.9021,-7.99637 -3.40387,-13.85219 1.96492,-7.67987 1.63646,-8.46176 -5.93229,-14.12162 -2.76932,-2.07087 -6.22721,-4.79521 -7.6842,-6.05409 l -2.64908,-2.28887 4.377,-3.14146 c 2.40735,-1.7278 4.68799,-3.40172 5.06808,-3.71982 0.50489,-0.42253 1.3309,-5.3e-4 3.06568,1.5662 1.30602,1.17951 4.00496,3.35836 5.99765,4.84188 1.99269,1.48353 4.58535,3.59863 5.76146,4.70023 4.84212,4.53532 6.48088,11.40986 4.5211,18.96588 -0.99121,3.82168 -0.98984,3.92849 0.0659,5.11615 1.16025,1.3053 12.32591,8.73106 15.77137,10.4888 3.81691,1.94724 20.78553,5.61364 25.98075,5.61364 l 3.0816,0 0,6.13135 0,6.13135 -1.81153,-0.0835 c -0.99635,-0.0459 -2.56402,-0.1685 -3.48372,-0.27239 z"
         id="path4522"
         inkscape:connector-curvature="0"
         transform="matrix(22.970755,0,0,24.063218,3138.571,6275.3383)" /><path
         style="opacity:0.24200003;fill:#1a1a1a;fill-opacity:1;stroke-width:0;stroke-miterlimit:4;stroke-dasharray:none"
         d="m 205.64853,224.0015 c -5.86711,-0.68213 -17.42588,-3.21648 -22.7386,-4.98561 -6.84821,-2.28046 -20.38231,-10.41885 -24.79121,-14.90758 -3.9641,-4.03588 -5.03502,-8.70414 -3.30501,-14.40694 1.10566,-3.64473 1.05052,-6.31081 -0.16876,-8.15977 -0.55194,-0.83699 -3.49752,-3.44628 -6.54572,-5.79843 -3.0482,-2.35215 -6.45858,-5.0937 -7.57862,-6.09234 l -2.03643,-1.8157 2.14309,-1.72224 c 1.17871,-0.94723 2.30114,-1.72224 2.4943,-1.72224 0.19316,0 0.70082,-0.31353 1.12813,-0.69674 3.34923,-3.00355 4.0843,-3.06011 6.99728,-0.53845 1.35188,1.17028 4.54764,3.72981 7.10167,5.68786 5.37769,4.12279 7.55302,6.98974 8.72887,11.50414 1.04836,4.02494 1.04646,4.83394 -0.0236,10.01422 -0.4755,2.30208 -0.72231,4.63379 -0.54845,5.18158 0.31453,0.99099 11.88008,8.89979 16.24134,11.10622 4.34891,2.20018 20.42418,5.67182 26.27958,5.67538 l 2.92632,0.002 0,6.13135 c 0,7.00982 0.73661,6.3621 -6.30422,5.54351 z"
         id="path4524"
         inkscape:connector-curvature="0"
         transform="matrix(22.970755,0,0,24.063218,3138.571,6275.3383)" /><path
         style="opacity:0.24200003;fill:#1a1a1a;fill-opacity:1;stroke-width:0;stroke-miterlimit:4;stroke-dasharray:none"
         d="m 204.70661,223.70257 c -7.16804,-0.92277 -19.15202,-3.72862 -23.70521,-5.55018 -4.39518,-1.75835 -10.09377,-4.91766 -15.79844,-8.75869 -10.02863,-6.7524 -12.30834,-10.9008 -10.42997,-18.97941 1.13355,-4.87527 1.1098,-6.99566 -0.0989,-8.82829 -0.53593,-0.81257 -4.16051,-4.01715 -8.05462,-7.12128 -3.89411,-3.10414 -7.2563,-5.92882 -7.47153,-6.27706 -0.21852,-0.35358 0.20165,-1.08551 0.9515,-1.6575 0.73855,-0.56338 1.59365,-1.22518 1.90022,-1.47068 0.30657,-0.24549 0.99634,-0.61395 1.53284,-0.81879 0.53649,-0.20485 0.97544,-0.64595 0.97544,-0.98023 0,-0.33428 0.24262,-0.45784 0.53916,-0.27456 0.29654,0.18327 0.83746,-0.14442 1.20204,-0.7282 0.43817,-0.70163 1.05841,-0.96119 1.82976,-0.76573 1.55135,0.39311 12.515,9.02715 15.10952,11.89897 3.95023,4.37244 5.10948,9.30188 3.86532,16.43643 -0.46074,2.64208 -0.70246,5.22992 -0.53715,5.75075 0.42695,1.34522 14.99805,10.81925 18.74699,12.18917 4.60631,1.68322 19.27025,4.55935 23.24583,4.55935 l 3.44335,0 0,5.78764 c 0,6.85953 0.37604,6.56952 -7.24614,5.58829 z"
         id="path4526"
         inkscape:connector-curvature="0"
         transform="matrix(22.970755,0,0,24.063218,3138.571,6275.3383)" /><path
         style="opacity:0.24200003;fill:#1a1a1a;fill-opacity:1;stroke-width:0;stroke-miterlimit:4;stroke-dasharray:none"
         d="m 201.08354,223.14225 c -15.21588,-2.69449 -24.19387,-6.07477 -34.8372,-13.11645 -7.31808,-4.84167 -10.29114,-7.92441 -11.43404,-11.85582 -0.83318,-2.86607 -0.83593,-3.48175 -0.0328,-7.36514 1.12232,-5.42694 1.10037,-7.3929 -0.10275,-9.20547 -0.53447,-0.80522 -4.29038,-4.14492 -8.34647,-7.42157 -7.36262,-5.94779 -7.37324,-5.95976 -6.48529,-7.31495 0.48918,-0.74657 1.24468,-1.35741 1.67889,-1.35741 0.43422,0 0.93331,-0.3748 1.10909,-0.83289 0.17579,-0.45809 0.54593,-0.69302 0.82254,-0.52207 0.27661,0.17096 0.65285,-0.0799 0.83609,-0.55739 0.18325,-0.47752 0.54951,-0.73452 0.81393,-0.5711 0.26442,0.16342 0.78541,-0.19071 1.15777,-0.78695 1.00082,-1.60256 2.45732,-0.83875 10.1019,5.29758 6.71351,5.38895 9.35733,8.54001 10.44242,12.44586 0.72484,2.6091 0.69932,7.64555 -0.0566,11.1703 -0.33558,1.56475 -0.46923,3.40645 -0.297,4.09267 0.31446,1.25291 11.24524,8.89463 16.45587,11.50432 4.61749,2.31262 19.72945,5.5757 25.83787,5.57909 l 3.20502,0.002 0,4.97097 c 0,2.73403 -0.15225,5.36773 -0.33833,5.85265 -0.42605,1.11027 -4.23226,1.10738 -10.53088,-0.008 l 0,2e-5 z"
         id="path4528"
         inkscape:connector-curvature="0"
         transform="matrix(22.970755,0,0,24.063218,3138.571,6275.3383)" /><path
         style="opacity:0.24200003;fill:#1a1a1a;fill-opacity:1;stroke-width:0;stroke-miterlimit:4;stroke-dasharray:none"
         d="m 200.52615,222.94617 c -14.21941,-2.53716 -24.61268,-6.5199 -34.60087,-13.25915 -10.86079,-7.32802 -12.54294,-10.64887 -10.73491,-21.1925 0.35713,-2.08262 0.48372,-4.44641 0.28131,-5.25287 -0.40133,-1.59904 -3.17343,-4.41116 -8.60691,-8.73118 -7.27954,-5.78777 -7.59921,-6.14811 -6.79209,-7.65622 0.39702,-0.74184 1.04325,-1.34881 1.43607,-1.34881 0.39281,0 0.96987,-0.43895 1.28235,-0.97544 0.31247,-0.53649 0.57577,-0.75755 0.58509,-0.49124 0.009,0.26631 0.89868,-0.18832 1.97634,-1.0103 1.33265,-1.01646 2.3231,-1.37907 3.09643,-1.13363 1.39386,0.4424 11.22952,8.22609 14.15144,11.19909 4.16024,4.23298 5.43916,9.55006 4.20513,17.48278 -0.68816,4.42367 -0.67536,4.55387 0.57853,5.88858 1.53817,1.63731 11.35407,8.21637 14.96389,10.02948 5.06185,2.54242 19.92898,5.83188 26.35791,5.83188 l 3.24689,0 0,5.18378 c 0,3.28863 -0.24453,5.42831 -0.66887,5.85265 -0.89957,0.89956 -4.06783,0.77678 -10.75773,-0.4169 z"
         id="path4530"
         inkscape:connector-curvature="0"
         transform="matrix(22.970755,0,0,24.063218,3138.571,6275.3383)" /><path
         style="opacity:0.24200003;fill:#1a1a1a;fill-opacity:1;stroke-width:0;stroke-miterlimit:4;stroke-dasharray:none"
         d="m 200.52615,222.8637 c -3.37224,-0.59302 -8.51421,-1.70993 -11.4266,-2.48201 -14.06863,-3.72966 -31.20304,-14.47937 -33.76278,-21.18196 -0.95416,-2.49843 -0.94363,-3.62835 0.11617,-12.46191 0.50396,-4.2006 -0.37016,-5.51005 -7.6621,-11.47796 -3.37123,-2.75911 -6.63912,-5.55713 -7.26198,-6.21783 -1.07948,-1.14505 -1.08827,-1.26873 -0.18792,-2.64284 0.51951,-0.79286 1.15253,-1.31304 1.40672,-1.15594 0.2542,0.1571 0.72079,-0.15859 1.03687,-0.70153 0.31609,-0.54294 0.58234,-0.79 0.59166,-0.54902 0.009,0.24098 0.95307,-0.19797 2.09722,-0.97544 1.14415,-0.77747 2.25116,-1.41359 2.46001,-1.41359 0.74698,0 9.24188,6.58404 12.85145,9.96062 5.84988,5.47227 7.27408,9.90262 6.02103,18.73 -0.66976,4.71827 -0.6566,4.85665 0.58766,6.1811 1.54463,1.64419 11.36792,8.21799 15.02512,10.05489 5.0655,2.54426 19.80045,5.79636 26.26271,5.79636 l 3.27136,0 0,4.7745 c 0,2.62598 -0.25965,5.25967 -0.577,5.85265 -0.72987,1.36377 -2.67392,1.34763 -10.8496,-0.0901 z"
         id="path4532"
         inkscape:connector-curvature="0"
         transform="matrix(22.970755,0,0,24.063218,3138.571,6275.3383)" /><path
         style="opacity:0.24200003;fill:#1a1a1a;fill-opacity:1;stroke-width:0;stroke-miterlimit:4;stroke-dasharray:none"
         d="m 201.08354,222.95195 c -12.48498,-2.21476 -21.23353,-5.1779 -29.82064,-10.10029 -6.94717,-3.98232 -12.42746,-8.28488 -14.73547,-11.56879 -1.45582,-2.07138 -1.67412,-2.86817 -1.67667,-6.11999 -0.002,-2.05621 0.21191,-5.52512 0.47451,-7.70869 0.62401,-5.18882 0.24871,-5.7869 -7.80058,-12.43084 -8.50115,-7.01691 -8.3533,-6.8392 -7.17999,-8.6299 0.51744,-0.78971 1.14877,-1.3073 1.40296,-1.1502 0.2542,0.1571 0.72079,-0.15859 1.03687,-0.70153 0.31609,-0.54294 0.58234,-0.79548 0.59166,-0.56121 0.009,0.23428 0.99978,-0.22445 2.20103,-1.0194 2.64081,-1.74761 2.47373,-1.81709 9.92699,4.12853 10.8107,8.62395 12.69555,12.49212 11.2779,23.14511 -0.63432,4.76665 -0.61801,4.93194 0.61632,6.24582 1.54069,1.64 11.36839,8.21549 15.02025,10.04971 5.08649,2.5548 19.80376,5.79636 26.31652,5.79636 l 3.32516,0 -0.19315,5.31615 c -0.21112,5.81061 -0.54104,6.40144 -3.53753,6.33501 -0.9197,-0.0204 -4.18046,-0.48202 -7.24614,-1.02585 z"
         id="path4534"
         inkscape:connector-curvature="0"
         transform="matrix(22.970755,0,0,24.063218,3138.571,6275.3383)" /><path
         style="opacity:0.24200003;fill:#1a1a1a;fill-opacity:1;stroke-width:0;stroke-miterlimit:4;stroke-dasharray:none"
         d="m 205.54271,223.64886 c -14.82552,-1.91551 -29.00919,-6.98435 -39.69221,-14.18487 -9.83541,-6.62921 -12.03386,-10.39361 -10.85037,-18.57903 0.98938,-6.84291 0.88678,-7.79829 -1.07779,-10.03582 -0.95343,-1.08589 -4.46502,-4.25113 -7.80354,-7.03387 -3.34972,-2.79208 -6.06209,-5.4756 -6.05231,-5.98794 0.0166,-0.87101 1.65446,-3.54528 1.65446,-2.70143 0,0.21501 1.38412,-0.52808 3.07583,-1.65131 l 3.07582,-2.04223 2.91618,2.02146 c 5.1525,3.57167 11.8655,9.63981 13.65802,12.34603 2.53296,3.82407 3.14213,7.4876 2.32477,13.98122 -0.65802,5.22776 -0.64746,5.34306 0.61258,6.68431 1.55224,1.65228 11.36705,8.22283 15.03453,10.0649 5.09142,2.55728 19.80454,5.79636 26.3292,5.79636 l 3.33784,0 -0.23322,5.33252 c -0.28767,6.57735 -0.46425,6.74496 -6.30979,5.9897 z"
         id="path4536"
         inkscape:connector-curvature="0"
         transform="matrix(22.970755,0,0,24.063218,3138.571,6275.3383)" /><path
         style="opacity:0.24200003;fill:#1a1a1a;fill-opacity:1;stroke-width:0;stroke-miterlimit:4;stroke-dasharray:none"
         d="m 204.04855,223.44379 c -14.91013,-2.24561 -26.60565,-6.49984 -37.73136,-13.72471 -10.08604,-6.54973 -12.4219,-10.45545 -11.25793,-18.82407 0.93793,-6.74346 0.81589,-7.82173 -1.13692,-10.04587 -0.95343,-1.08589 -4.46502,-4.25113 -7.80354,-7.03387 -3.34972,-2.79208 -6.06209,-5.4756 -6.05231,-5.98794 0.0166,-0.87101 1.65446,-3.54528 1.65446,-2.70143 0,0.21501 1.3573,-0.51027 3.01622,-1.61173 3.59756,-2.38865 3.12839,-2.54844 10.92093,3.71965 5.30341,4.2659 8.55718,7.65977 9.99059,10.42077 1.3013,2.50655 1.72481,7.45295 1.07353,12.53829 -0.6111,4.77154 -0.59386,4.93577 0.65827,6.2686 1.5552,1.65544 11.36672,8.22473 15.03819,10.0688 5.0655,2.54426 19.80045,5.79636 26.26271,5.79636 l 3.27136,0 -0.008,4.31981 c -0.0135,7.0993 -0.88868,7.85271 -7.89599,6.79734 l -2e-5,0 z"
         id="path4538"
         inkscape:connector-curvature="0"
         transform="matrix(22.970755,0,0,24.063218,3138.571,6275.3383)" /><path
         style="opacity:0.24200003;fill:#1a1a1a;fill-opacity:1;stroke-width:0;stroke-miterlimit:4;stroke-dasharray:none"
         d="m 205.54271,223.65421 c -4.96983,-0.62622 -16.02166,-3.24551 -20.98794,-4.97416 -12.5558,-4.37039 -24.79096,-12.14667 -28.16197,-17.89888 -1.64806,-2.81219 -1.81998,-4.8397 -1.08091,-12.74757 l 0.47319,-5.06292 -1.79812,-2.04794 c -0.98897,-1.12637 -4.52964,-4.32473 -7.86815,-7.10747 -5.95421,-4.96298 -6.79567,-6.17472 -5.3733,-7.73771 0.60693,-0.66694 -1.55259,0.77873 -6.92306,4.63458 l -1.48844,1.06866 -7.98727,-3.35232 c -7.28313,-3.0568 -21.46565,-7.3822 -24.20541,-7.3822 -0.616619,0 -1.891741,-0.81519 -2.833601,-1.81154 C 96.365868,158.2384 85.02941,144.07565 72.115601,127.76196 47.82352,97.074387 47.395011,96.440897 49.332691,94.080613 c 0.383209,-0.466787 1.950883,-1.732399 3.48372,-2.812473 5.986671,-4.218351 39.731537,-27.103998 40.837821,-27.696063 1.523951,-0.815594 4.079461,-0.772634 5.18184,0.08711 0.478855,0.373459 11.856598,14.557349 25.283878,31.519755 18.20622,22.999546 24.41684,31.219106 24.42743,32.328926 0.0599,6.28548 1.27358,14.41136 3.01114,20.16092 1.06544,3.52553 2.05389,6.8176 2.19656,7.31572 0.18352,0.64073 -1.53872,2.24756 -5.88736,5.49287 -3.38072,2.52297 -6.14677,4.68896 -6.14677,4.81333 0,0.12437 1.3745,-0.6865 3.05445,-1.80192 3.04291,-2.02038 3.06028,-2.02425 4.59851,-1.02412 5.88049,3.82337 14.50519,11.78516 16.09341,14.85642 1.386,2.68024 1.83539,7.45898 1.21142,12.88196 -0.54497,4.73625 -0.51979,4.95816 0.7113,6.2686 1.54748,1.64721 11.3676,8.2198 15.02864,10.05863 5.09208,2.5576 19.80464,5.79636 26.33089,5.79636 l 3.33954,0 -0.24324,5.0876 c -0.31167,6.5189 -0.73822,6.94117 -6.30316,6.23997 z M 102.24895,140.48525 c 1.74933,-0.67076 20.34236,-13.70735 22.62543,-15.86392 2.39016,-2.25772 3.30084,-5.22817 2.46103,-8.02732 -0.8205,-2.73472 -26.25515,-36.791278 -28.746961,-38.491675 -1.360703,-0.928534 -2.697221,-1.291842 -4.812638,-1.308228 -3.204578,-0.02482 -4.377208,0.673212 -20.044011,11.931665 -5.548855,3.98751 -6.538972,4.941402 -7.467976,7.194747 -0.977554,2.371106 -1.001124,2.808801 -0.270147,5.016561 0.502149,1.51663 5.814043,9.09318 14.241735,20.3135 11.426853,15.2133 13.762233,18.02787 15.585449,18.78337 2.452283,1.01617 4.567619,1.16468 6.428089,0.4513 z"
         id="path4540"
         inkscape:connector-curvature="0"
         transform="matrix(22.970755,0,0,24.063218,3138.571,6275.3383)" /><path
         style="opacity:0.24200003;fill:#1a1a1a;fill-opacity:1;stroke-width:0;stroke-miterlimit:4;stroke-dasharray:none"
         d="m 205.54271,223.65421 c -4.96983,-0.62622 -16.02166,-3.24551 -20.98794,-4.97416 -12.47472,-4.34217 -24.7915,-12.14761 -28.11353,-17.81623 -1.61826,-2.76134 -1.83438,-5.22184 -1.12693,-12.83022 l 0.47077,-5.06292 -1.79812,-2.04794 c -0.98897,-1.12637 -4.55137,-4.34284 -7.91645,-7.14773 -5.18537,-4.32214 -6.0797,-5.30187 -5.86499,-6.42506 0.22731,-1.18907 0.14806,-1.25171 -0.77105,-0.60945 -0.56342,0.3937 -2.40554,1.68288 -4.0936,2.86483 l -3.06919,2.149 -7.95611,-3.33909 c -7.25807,-3.04613 -21.43931,-7.36896 -24.17424,-7.36896 -0.616619,0 -1.891741,-0.81519 -2.833601,-1.81154 C 96.365868,158.2384 85.02941,144.07565 72.115601,127.76196 47.82352,97.074387 47.395011,96.440897 49.332691,94.080613 c 0.383209,-0.466787 1.950883,-1.732399 3.48372,-2.812473 5.986671,-4.218351 39.731537,-27.103998 40.837821,-27.696063 1.523999,-0.81562 4.08001,-0.772634 5.179777,0.08711 0.47772,0.373459 11.855921,14.564677 25.284891,31.53604 18.06183,22.826311 24.41974,31.240091 24.42949,32.328921 0.0559,6.2484 1.27395,14.39964 3.01013,20.14464 1.06544,3.52553 2.05389,6.8176 2.19656,7.31572 0.18352,0.64073 -1.53872,2.24756 -5.88736,5.49287 -3.38072,2.52297 -6.14677,4.68896 -6.14677,4.81333 0,0.12437 1.37791,-0.68876 3.06202,-1.80695 l 3.06202,-2.03306 2.13596,1.41351 c 3.64382,2.41137 11.49774,9.17827 13.40001,11.5454 0.9967,1.24026 2.19189,3.16376 2.65596,4.27445 0.91342,2.18611 1.12339,8.02005 0.47535,13.20682 -0.3373,2.6997 -0.23691,3.38162 0.6426,4.36495 1.37163,1.53356 11.40713,8.26782 15.13875,10.15878 5.30834,2.68994 19.72698,5.91203 26.45595,5.91203 l 3.33954,0 -0.24324,5.0876 c -0.31167,6.5189 -0.73822,6.94117 -6.30316,6.23997 z M 102.24895,140.48525 c 1.74933,-0.67076 20.34236,-13.70735 22.62543,-15.86392 2.40452,-2.27128 3.30562,-5.23555 2.4402,-8.02732 -0.8215,-2.65011 -26.20312,-36.758287 -28.64826,-38.497952 -1.524039,-1.08432 -2.360566,-1.260077 -5.207924,-1.094199 -3.262101,0.190039 -3.67908,0.39872 -10.869207,5.439591 -14.644601,10.267073 -15.34933,10.851898 -16.403709,13.61275 -0.865716,2.266845 -0.884847,2.790081 -0.179856,4.91917 0.486921,1.47051 5.933905,9.23237 14.229788,20.27721 11.426853,15.2133 13.762233,18.02787 15.585449,18.78337 2.452283,1.01617 4.567619,1.16468 6.428089,0.4513 z"
         id="path4542"
         inkscape:connector-curvature="0"
         transform="matrix(22.970755,0,0,24.063218,3138.571,6275.3383)" /></g></g></svg>