<?xml version="1.0" encoding="UTF-8" standalone="no"?>
<!-- Created with Inkscape (http://www.inkscape.org/) -->

<svg
   xmlns:dc="http://purl.org/dc/elements/1.1/"
   xmlns:cc="http://creativecommons.org/ns#"
   xmlns:rdf="http://www.w3.org/1999/02/22-rdf-syntax-ns#"
   xmlns:svg="http://www.w3.org/2000/svg"
   xmlns="http://www.w3.org/2000/svg"
   xmlns:sodipodi="http://sodipodi.sourceforge.net/DTD/sodipodi-0.dtd"
   xmlns:inkscape="http://www.inkscape.org/namespaces/inkscape"
   width="2.9000001mm"
   height="4mm"
   viewBox="0 0 10.275591 14.173228"
   id="svg2"
   version="1.1"
   inkscape:version="0.92.3 (2405546, 2018-03-11)"
   sodipodi:docname="lv.svg">
  <defs
     id="defs4" />
  <sodipodi:namedview
     id="base"
     pagecolor="#ffffff"
     bordercolor="#666666"
     borderopacity="1.0"
     inkscape:pageopacity="0.0"
     inkscape:pageshadow="2"
     inkscape:zoom="5.6"
     inkscape:cx="-117.49491"
     inkscape:cy="8.2391407"
     inkscape:document-units="px"
     inkscape:current-layer="layer1"
     showgrid="false"
     inkscape:window-width="1920"
     inkscape:window-height="1025"
     inkscape:window-x="0"
     inkscape:window-y="0"
     inkscape:window-maximized="1" />
  <metadata
     id="metadata7">
    <rdf:RDF>
      <cc:Work
         rdf:about="">
        <dc:format>image/svg+xml</dc:format>
        <dc:type
           rdf:resource="http://purl.org/dc/dcmitype/StillImage" />
        <dc:title />
      </cc:Work>
    </rdf:RDF>
  </metadata>
  <g
     inkscape:label="Layer 1"
     inkscape:groupmode="layer"
     id="layer1"
     transform="translate(0,-1038.189)">
    <g
       aria-label="v"
       style="font-style:normal;font-variant:normal;font-weight:500;font-stretch:normal;line-height:0%;font-family:'CMU Serif';-inkscape-font-specification:'CMU Serif Medium';text-align:center;letter-spacing:0px;word-spacing:0px;text-anchor:middle;fill:#ffffff;fill-opacity:1;stroke:none;stroke-width:1px;stroke-linecap:butt;stroke-linejoin:miter;stroke-opacity:1"
       id="text4133">
      <path
         d="m 2.0113029,1044.4592 v -0.3906 q 0.5615235,0.037 1.2145997,0.037 0.2380371,0 1.3610839,-0.037 v 0.3906 q -0.7141113,0 -0.7141113,0.3235 0,0.049 0.073242,0.2136 l 1.4038086,3.4851 1.2756348,-3.186 q 0.073242,-0.2136 0.073242,-0.2991 0,-0.2136 -0.1464843,-0.3662 -0.1403809,-0.1587 -0.4516602,-0.1709 v -0.3906 q 0.6347656,0.037 1.0864258,0.037 0.5126953,0 0.9338379,-0.037 v 0.3906 q -0.3723145,0 -0.6347656,0.1709 -0.2624512,0.1648 -0.3479004,0.3113 -0.079346,0.1404 -0.1647949,0.354 l -1.6357422,4.065 q -0.097656,0.238 -0.2624512,0.238 -0.1098633,0 -0.1586914,-0.049 -0.042725,-0.043 -0.1037598,-0.1892 l -1.8005371,-4.4373 q -0.1220703,-0.3113 -0.2807617,-0.3845 -0.1586914,-0.079 -0.7202149,-0.079 z"
         style="font-size:12.5px;line-height:1.25"
         id="path9"
         inkscape:connector-curvature="0" />
    </g>
  </g>
</svg>
