<?xml version="1.0" encoding="UTF-8" standalone="no"?>
<!-- Created with Inkscape (http://www.inkscape.org/) -->

<svg
   xmlns:dc="http://purl.org/dc/elements/1.1/"
   xmlns:cc="http://creativecommons.org/ns#"
   xmlns:rdf="http://www.w3.org/1999/02/22-rdf-syntax-ns#"
   xmlns:svg="http://www.w3.org/2000/svg"
   xmlns="http://www.w3.org/2000/svg"
   xmlns:sodipodi="http://sodipodi.sourceforge.net/DTD/sodipodi-0.dtd"
   xmlns:inkscape="http://www.inkscape.org/namespaces/inkscape"
   width="2.9000001mm"
   height="4mm"
   viewBox="0 0 10.275591 14.173228"
   id="svg2"
   version="1.1"
   inkscape:version="0.92.3 (2405546, 2018-03-11)"
   sodipodi:docname="l2.svg">
  <defs
     id="defs4" />
  <sodipodi:namedview
     id="base"
     pagecolor="#ffffff"
     bordercolor="#666666"
     borderopacity="1.0"
     inkscape:pageopacity="0.0"
     inkscape:pageshadow="2"
     inkscape:zoom="1.979899"
     inkscape:cx="-236.51038"
     inkscape:cy="16.349881"
     inkscape:document-units="px"
     inkscape:current-layer="layer1"
     showgrid="false"
     inkscape:window-width="1920"
     inkscape:window-height="1025"
     inkscape:window-x="0"
     inkscape:window-y="0"
     inkscape:window-maximized="1" />
  <metadata
     id="metadata7">
    <rdf:RDF>
      <cc:Work
         rdf:about="">
        <dc:format>image/svg+xml</dc:format>
        <dc:type
           rdf:resource="http://purl.org/dc/dcmitype/StillImage" />
        <dc:title />
      </cc:Work>
    </rdf:RDF>
  </metadata>
  <g
     inkscape:label="Layer 1"
     inkscape:groupmode="layer"
     id="layer1"
     transform="translate(0,-1038.189)">
    <g
       aria-label="2"
       style="font-style:normal;font-variant:normal;font-weight:500;font-stretch:normal;line-height:0%;font-family:'CMU Serif';-inkscape-font-specification:'CMU Serif Medium';text-align:center;letter-spacing:0px;word-spacing:0px;text-anchor:middle;fill:#ffffff;fill-opacity:1;stroke:none;stroke-width:1px;stroke-linecap:butt;stroke-linejoin:miter;stroke-opacity:1"
       id="text4133">
      <path
         d="m 2.5667229,1049.458 q 0,-0.2258 0.018311,-0.293 0.024414,-0.067 0.1220703,-0.1709 l 2.3986817,-2.6733 q 1.3122558,-1.477 1.3122558,-2.7649 0,-0.8362 -0.4394531,-1.4343 -0.4333496,-0.5982 -1.2329102,-0.5982 -0.5493164,0 -1.0131835,0.3357 -0.4638672,0.3357 -0.6774903,0.9339 0.036621,-0.012 0.1647949,-0.012 0.3112793,0 0.4821778,0.1953 0.1770019,0.1953 0.1770019,0.4577 0,0.3357 -0.2197265,0.5005 -0.2136231,0.1587 -0.4272461,0.1587 -0.085449,0 -0.201416,-0.018 -0.1098633,-0.018 -0.2868653,-0.1892 -0.1770019,-0.177 -0.1770019,-0.4883 0,-0.8728 0.6591797,-1.5686 0.6652832,-0.6958 1.6784668,-0.6958 1.1474609,0 1.8981933,0.6836 0.756836,0.6775 0.756836,1.7395 0,0.3723 -0.1159668,0.7141 -0.1098633,0.3357 -0.2624512,0.5982 -0.1464844,0.2624 -0.5493164,0.6836 -0.4028321,0.4211 -0.7263184,0.7202 -0.3234863,0.299 -1.0498047,0.9338 l -1.3244629,1.2879 h 2.2521973 q 1.0986328,0 1.184082,-0.098 0.1220703,-0.177 0.2746582,-1.1108 h 0.3173829 l -0.354004,2.1728 z"
         style="font-size:12.5px;line-height:1.25"
         id="path9" />
    </g>
  </g>
</svg>
