<?xml version="1.0" encoding="UTF-8" standalone="no"?>
<!-- Created with Inkscape (http://www.inkscape.org/) -->

<svg
   xmlns:dc="http://purl.org/dc/elements/1.1/"
   xmlns:cc="http://creativecommons.org/ns#"
   xmlns:rdf="http://www.w3.org/1999/02/22-rdf-syntax-ns#"
   xmlns:svg="http://www.w3.org/2000/svg"
   xmlns="http://www.w3.org/2000/svg"
   xmlns:sodipodi="http://sodipodi.sourceforge.net/DTD/sodipodi-0.dtd"
   xmlns:inkscape="http://www.inkscape.org/namespaces/inkscape"
   width="2.9000001mm"
   height="4mm"
   viewBox="0 0 10.275591 14.173228"
   id="svg2"
   version="1.1"
   inkscape:version="0.92.3 (2405546, 2018-03-11)"
   sodipodi:docname="l9.svg">
  <defs
     id="defs4" />
  <sodipodi:namedview
     id="base"
     pagecolor="#ffffff"
     bordercolor="#666666"
     borderopacity="1.0"
     inkscape:pageopacity="0.0"
     inkscape:pageshadow="2"
     inkscape:zoom="1.979899"
     inkscape:cx="-336.51338"
     inkscape:cy="11.616013"
     inkscape:document-units="px"
     inkscape:current-layer="layer1"
     showgrid="false"
     inkscape:window-width="1920"
     inkscape:window-height="1025"
     inkscape:window-x="0"
     inkscape:window-y="0"
     inkscape:window-maximized="1" />
  <metadata
     id="metadata7">
    <rdf:RDF>
      <cc:Work
         rdf:about="">
        <dc:format>image/svg+xml</dc:format>
        <dc:type
           rdf:resource="http://purl.org/dc/dcmitype/StillImage" />
        <dc:title />
      </cc:Work>
    </rdf:RDF>
  </metadata>
  <g
     inkscape:label="Layer 1"
     inkscape:groupmode="layer"
     id="layer1"
     transform="translate(0,-1038.189)">
    <g
       aria-label="9"
       style="font-style:normal;font-variant:normal;font-weight:500;font-stretch:normal;line-height:0%;font-family:'CMU Serif';-inkscape-font-specification:'CMU Serif Medium';text-align:center;letter-spacing:0px;word-spacing:0px;text-anchor:middle;fill:#ffffff;fill-opacity:1;stroke:none;stroke-width:1px;stroke-linecap:butt;stroke-linejoin:miter;stroke-opacity:1"
       id="text4133">
      <path
         d="m 2.4690666,1043.9465 q 0,-0.6652 0.1953125,-1.1169 0.1953125,-0.4578 0.6042481,-0.9094 0.7507324,-0.7874 1.8371582,-0.7874 0.4638672,0 0.8728027,0.1953 0.4150391,0.1953 0.8056641,0.6409 0.3967285,0.4394 0.6347656,1.3123 0.2380371,0.8666 0.2380371,2.0629 0,1.9349 -0.9399414,3.1617 -0.9338379,1.2268 -2.1972656,1.2268 -0.7995606,0 -1.2695313,-0.3601 -0.4699707,-0.3663 -0.4699707,-0.9888 0,-0.3235 0.1831055,-0.4578 0.1831055,-0.1404 0.390625,-0.1404 0.2258301,0 0.402832,0.1526 0.177002,0.1465 0.177002,0.4212 0,0.2258 -0.1464844,0.4028 -0.1403809,0.1709 -0.5065918,0.1709 0.3601074,0.4517 1.2268066,0.4517 0.3112793,0 0.6225586,-0.1404 0.3112793,-0.1465 0.6469727,-0.4944 0.3417969,-0.354 0.5493164,-1.0925 0.2075195,-0.7386 0.2075195,-1.7762 v -0.3967 q -0.5004883,1.2512 -1.5625,1.2512 -1.0498047,0 -1.776123,-0.8056 -0.7263184,-0.8057 -0.7263184,-1.9837 z m 1.1230469,0.012 q 0,1.2391 0.2258301,1.6968 0.3845215,0.7874 1.1657715,0.7874 0.7629394,0 1.1413574,-0.6775 0.3845215,-0.6836 0.3845215,-1.5686 0,-1.2268 -0.2014161,-1.7639 -0.3723144,-0.9888 -1.2023925,-0.9888 -0.8239746,0 -1.2512207,0.7873 -0.2624512,0.4639 -0.2624512,1.7273 z"
         style="font-size:12.5px;line-height:1.25"
         id="path9" />
    </g>
  </g>
</svg>
