<?xml version="1.0" encoding="UTF-8" standalone="no"?>
<!-- Created with Inkscape (http://www.inkscape.org/) -->

<svg
   xmlns:dc="http://purl.org/dc/elements/1.1/"
   xmlns:cc="http://creativecommons.org/ns#"
   xmlns:rdf="http://www.w3.org/1999/02/22-rdf-syntax-ns#"
   xmlns:svg="http://www.w3.org/2000/svg"
   xmlns="http://www.w3.org/2000/svg"
   xmlns:sodipodi="http://sodipodi.sourceforge.net/DTD/sodipodi-0.dtd"
   xmlns:inkscape="http://www.inkscape.org/namespaces/inkscape"
   width="2.9000001mm"
   height="4mm"
   viewBox="0 0 10.275591 14.173228"
   id="svg2"
   version="1.1"
   inkscape:version="0.92.3 (2405546, 2018-03-11)"
   sodipodi:docname="lo.svg">
  <defs
     id="defs4" />
  <sodipodi:namedview
     id="base"
     pagecolor="#ffffff"
     bordercolor="#666666"
     borderopacity="1.0"
     inkscape:pageopacity="0.0"
     inkscape:pageshadow="2"
     inkscape:zoom="3.959798"
     inkscape:cx="-148.41089"
     inkscape:cy="1.4764123"
     inkscape:document-units="px"
     inkscape:current-layer="layer1"
     showgrid="false"
     inkscape:window-width="1920"
     inkscape:window-height="1025"
     inkscape:window-x="0"
     inkscape:window-y="0"
     inkscape:window-maximized="1" />
  <metadata
     id="metadata7">
    <rdf:RDF>
      <cc:Work
         rdf:about="">
        <dc:format>image/svg+xml</dc:format>
        <dc:type
           rdf:resource="http://purl.org/dc/dcmitype/StillImage" />
        <dc:title />
      </cc:Work>
    </rdf:RDF>
  </metadata>
  <g
     inkscape:label="Layer 1"
     inkscape:groupmode="layer"
     id="layer1"
     transform="translate(0,-1038.189)">
    <g
       aria-label="o"
       style="font-style:normal;font-variant:normal;font-weight:500;font-stretch:normal;line-height:0%;font-family:'CMU Serif';-inkscape-font-specification:'CMU Serif Medium';text-align:center;letter-spacing:0px;word-spacing:0px;text-anchor:middle;fill:#ffffff;fill-opacity:1;stroke:none;stroke-width:1px;stroke-linecap:butt;stroke-linejoin:miter;stroke-opacity:1"
       id="text4133">
      <path
         d="m 3.1160393,1048.7866 q -0.8239746,-0.8178 -0.8239746,-2.0019 0,-1.1902 0.805664,-2.0569 0.8117676,-0.8728 1.9714356,-0.8728 1.1352539,0 1.9470215,0.8667 0.8178711,0.8606 0.8178711,2.063 0,1.1779 -0.8239747,1.9958 -0.817871,0.8179 -1.953125,0.8179 -1.1108398,0 -1.9409179,-0.8118 z m 0.213623,-2.1057 q 0,1.2146 0.3173828,1.7639 0.4882813,0.8362 1.4221192,0.8362 0.4638672,0 0.8483886,-0.2502 0.390625,-0.2503 0.6042481,-0.6714 0.2746582,-0.5493 0.2746582,-1.6785 0,-1.2024 -0.3295898,-1.7334 -0.4882813,-0.8118 -1.4099122,-0.8118 -0.402832,0 -0.7995605,0.2137 -0.390625,0.2075 -0.6286621,0.6225 -0.2990723,0.5493 -0.2990723,1.709 z"
         style="font-size:12.5px;line-height:1.25"
         id="path9"
         inkscape:connector-curvature="0" />
    </g>
  </g>
</svg>
