<?xml version="1.0" encoding="UTF-8" standalone="no"?>
<!-- Created with Inkscape (http://www.inkscape.org/) -->

<svg
   xmlns:dc="http://purl.org/dc/elements/1.1/"
   xmlns:cc="http://creativecommons.org/ns#"
   xmlns:rdf="http://www.w3.org/1999/02/22-rdf-syntax-ns#"
   xmlns:svg="http://www.w3.org/2000/svg"
   xmlns="http://www.w3.org/2000/svg"
   xmlns:sodipodi="http://sodipodi.sourceforge.net/DTD/sodipodi-0.dtd"
   xmlns:inkscape="http://www.inkscape.org/namespaces/inkscape"
   width="2.9000001mm"
   height="4mm"
   viewBox="0 0 10.275591 14.173228"
   id="svg2"
   version="1.1"
   inkscape:version="0.92.3 (2405546, 2018-03-11)"
   sodipodi:docname="ls.svg">
  <defs
     id="defs4" />
  <sodipodi:namedview
     id="base"
     pagecolor="#ffffff"
     bordercolor="#666666"
     borderopacity="1.0"
     inkscape:pageopacity="0.0"
     inkscape:pageshadow="2"
     inkscape:zoom="5.6"
     inkscape:cx="-114.67059"
     inkscape:cy="2.7473927"
     inkscape:document-units="px"
     inkscape:current-layer="layer1"
     showgrid="false"
     inkscape:window-width="1920"
     inkscape:window-height="1025"
     inkscape:window-x="0"
     inkscape:window-y="0"
     inkscape:window-maximized="1" />
  <metadata
     id="metadata7">
    <rdf:RDF>
      <cc:Work
         rdf:about="">
        <dc:format>image/svg+xml</dc:format>
        <dc:type
           rdf:resource="http://purl.org/dc/dcmitype/StillImage" />
        <dc:title />
      </cc:Work>
    </rdf:RDF>
  </metadata>
  <g
     inkscape:label="Layer 1"
     inkscape:groupmode="layer"
     id="layer1"
     transform="translate(0,-1038.189)">
    <g
       aria-label="s"
       style="font-style:normal;font-variant:normal;font-weight:500;font-stretch:normal;line-height:0%;font-family:'CMU Serif';-inkscape-font-specification:'CMU Serif Medium';text-align:center;letter-spacing:0px;word-spacing:0px;text-anchor:middle;fill:#ffffff;fill-opacity:1;stroke:none;stroke-width:1px;stroke-linecap:butt;stroke-linejoin:miter;stroke-opacity:1"
       id="text4133">
      <path
         d="m 3.018383,1049.2932 v -1.6479 q 0,-0.1404 0.0061,-0.1892 0.0061,-0.049 0.042725,-0.086 0.036621,-0.037 0.1098632,-0.037 0.085449,0 0.1159668,0.037 0.036621,0.037 0.061035,0.177 0.189209,0.8606 0.592041,1.3184 0.4089355,0.4516 1.1474609,0.4516 0.7019043,0 1.0559082,-0.3113 0.3540039,-0.3112 0.3540039,-0.8239 0,-0.9156 -1.3000488,-1.1475 -0.7507324,-0.1526 -1.0620117,-0.2502 -0.3112793,-0.1038 -0.5859375,-0.3296 -0.5371094,-0.4395 -0.5371094,-1.062 0,-0.6226 0.4699707,-1.0804 0.4760742,-0.4577 1.5258789,-0.4577 0.7019043,0 1.1779786,0.354 0.1403808,-0.1099 0.213623,-0.2014 0.1647949,-0.1526 0.2502441,-0.1526 0.097656,0 0.1159668,0.067 0.018311,0.061 0.018311,0.2381 v 1.2573 q 0,0.1404 -0.0061,0.1892 -0.0061,0.049 -0.042725,0.085 -0.036621,0.031 -0.1159668,0.031 -0.1403809,0 -0.1464844,-0.116 -0.097656,-1.5137 -1.4648438,-1.5137 -0.7385254,0 -1.0681152,0.2869 -0.3295898,0.2807 -0.3295898,0.6653 0,0.2136 0.097656,0.3784 0.1037598,0.1587 0.2319336,0.2563 0.1342773,0.092 0.378418,0.1831 0.2441406,0.085 0.390625,0.116 0.1525879,0.03 0.4394531,0.092 1.0009766,0.1892 1.4221191,0.5981 0.5249024,0.5249 0.5249024,1.1902 0,0.7385 -0.5004883,1.239 -0.5004883,0.5005 -1.5075684,0.5005 -0.8117675,0 -1.3793945,-0.5432 -0.073242,0.073 -0.1281738,0.1404 -0.054932,0.061 -0.079346,0.085 -0.018311,0.024 -0.024414,0.043 -0.0061,0.012 -0.018311,0.024 -0.2502442,0.2503 -0.3112793,0.2503 -0.097656,0 -0.1159668,-0.067 -0.018311,-0.061 -0.018311,-0.2381 z"
         style="font-size:12.5px;line-height:1.25"
         id="path9"
         inkscape:connector-curvature="0" />
    </g>
  </g>
</svg>
