<?xml version="1.0" encoding="UTF-8" standalone="no"?>
<!-- Created with Inkscape (http://www.inkscape.org/) -->

<svg
   xmlns:dc="http://purl.org/dc/elements/1.1/"
   xmlns:cc="http://creativecommons.org/ns#"
   xmlns:rdf="http://www.w3.org/1999/02/22-rdf-syntax-ns#"
   xmlns:svg="http://www.w3.org/2000/svg"
   xmlns="http://www.w3.org/2000/svg"
   xmlns:sodipodi="http://sodipodi.sourceforge.net/DTD/sodipodi-0.dtd"
   xmlns:inkscape="http://www.inkscape.org/namespaces/inkscape"
   width="2.9000001mm"
   height="4mm"
   viewBox="0 0 10.275591 14.173228"
   id="svg2"
   version="1.1"
   inkscape:version="0.92.3 (2405546, 2018-03-11)"
   sodipodi:docname="lw.svg">
  <defs
     id="defs4" />
  <sodipodi:namedview
     id="base"
     pagecolor="#ffffff"
     bordercolor="#666666"
     borderopacity="1.0"
     inkscape:pageopacity="0.0"
     inkscape:pageshadow="2"
     inkscape:zoom="5.6"
     inkscape:cx="-105.51767"
     inkscape:cy="2.9042999"
     inkscape:document-units="px"
     inkscape:current-layer="layer1"
     showgrid="false"
     inkscape:window-width="1920"
     inkscape:window-height="1025"
     inkscape:window-x="0"
     inkscape:window-y="0"
     inkscape:window-maximized="1" />
  <metadata
     id="metadata7">
    <rdf:RDF>
      <cc:Work
         rdf:about="">
        <dc:format>image/svg+xml</dc:format>
        <dc:type
           rdf:resource="http://purl.org/dc/dcmitype/StillImage" />
        <dc:title />
      </cc:Work>
    </rdf:RDF>
  </metadata>
  <g
     inkscape:label="Layer 1"
     inkscape:groupmode="layer"
     id="layer1"
     transform="translate(0,-1038.189)">
    <g
       aria-label="w"
       style="font-style:normal;font-variant:normal;font-weight:500;font-stretch:normal;line-height:0%;font-family:'CMU Serif';-inkscape-font-specification:'CMU Serif Medium';text-align:center;letter-spacing:0px;word-spacing:0px;text-anchor:middle;fill:#ffffff;fill-opacity:1;stroke:none;stroke-width:1px;stroke-linecap:butt;stroke-linejoin:miter;stroke-opacity:1"
       id="text4133">
      <path
         d="m 0.77839279,1044.4592 v -0.3906 q 0.67749021,0.037 1.15966801,0.037 0.2380371,0 1.3671875,-0.037 v 0.3906 q -0.7385254,0 -0.7385254,0.3357 0,0.073 0.061035,0.2259 l 1.1901856,3.3386 1.0742187,-3.0274 q -0.2258301,-0.6103 -0.2868652,-0.6836 -0.1525879,-0.1892 -0.7873535,-0.1892 v -0.3906 q 0.5615234,0.037 1.1108398,0.037 0.2136231,0 1.3000488,-0.037 v 0.3906 q -0.7385253,0 -0.7385253,0.3357 0,0.049 0.061035,0.2381 l 1.2390137,3.4851 1.1352539,-3.1983 q 0.061035,-0.1648 0.067139,-0.2624 0,-0.2747 -0.1953125,-0.4273 -0.1953125,-0.1587 -0.5310059,-0.1709 v -0.3906 q 0.7141113,0.037 1.159668,0.037 0.5004883,0 0.9155273,-0.037 v 0.3906 q -0.7751465,0.024 -1.0498047,0.7996 l -1.4648437,4.1016 q -0.1403809,0.2258 -0.2502442,0.238 -0.1647949,0 -0.2502441,-0.238 l -1.2756348,-3.5523 -1.2634277,3.54 q -0.048828,0.1526 -0.091553,0.2015 -0.042725,0.049 -0.1586914,0.049 -0.1098633,0 -0.1586915,-0.067 -0.048828,-0.061 -0.1037597,-0.2137 l -1.574707,-4.425 q -0.1098633,-0.2869 -0.2746583,-0.3601 -0.1586914,-0.073 -0.64697261,-0.073 z"
         style="font-size:12.5px;line-height:1.25"
         id="path9"
         inkscape:connector-curvature="0" />
    </g>
  </g>
</svg>
