<?xml version="1.0" encoding="UTF-8" standalone="no"?>
<!-- Created with Inkscape (http://www.inkscape.org/) -->

<svg
   xmlns:dc="http://purl.org/dc/elements/1.1/"
   xmlns:cc="http://creativecommons.org/ns#"
   xmlns:rdf="http://www.w3.org/1999/02/22-rdf-syntax-ns#"
   xmlns:svg="http://www.w3.org/2000/svg"
   xmlns="http://www.w3.org/2000/svg"
   xmlns:sodipodi="http://sodipodi.sourceforge.net/DTD/sodipodi-0.dtd"
   xmlns:inkscape="http://www.inkscape.org/namespaces/inkscape"
   width="2.9000001mm"
   height="4mm"
   viewBox="0 0 10.275591 14.173228"
   id="svg2"
   version="1.1"
   inkscape:version="0.92.3 (2405546, 2018-03-11)"
   sodipodi:docname="lb.svg">
  <defs
     id="defs4" />
  <sodipodi:namedview
     id="base"
     pagecolor="#ffffff"
     bordercolor="#666666"
     borderopacity="1.0"
     inkscape:pageopacity="0.0"
     inkscape:pageshadow="2"
     inkscape:zoom="1.4"
     inkscape:cx="-388.80246"
     inkscape:cy="7.0145918"
     inkscape:document-units="px"
     inkscape:current-layer="layer1"
     showgrid="false"
     inkscape:window-width="1920"
     inkscape:window-height="1025"
     inkscape:window-x="0"
     inkscape:window-y="0"
     inkscape:window-maximized="1" />
  <metadata
     id="metadata7">
    <rdf:RDF>
      <cc:Work
         rdf:about="">
        <dc:format>image/svg+xml</dc:format>
        <dc:type
           rdf:resource="http://purl.org/dc/dcmitype/StillImage" />
        <dc:title />
      </cc:Work>
    </rdf:RDF>
  </metadata>
  <g
     inkscape:label="Layer 1"
     inkscape:groupmode="layer"
     id="layer1"
     transform="translate(0,-1038.189)">
    <g
       aria-label="b"
       style="font-style:normal;font-variant:normal;font-weight:500;font-stretch:normal;line-height:0%;font-family:'CMU Serif';-inkscape-font-specification:'CMU Serif Medium';text-align:center;letter-spacing:0px;word-spacing:0px;text-anchor:middle;fill:#000000;fill-opacity:1;stroke:none;stroke-width:1px;stroke-linecap:butt;stroke-linejoin:miter;stroke-opacity:1"
       id="text4133">
      <path
         d="m 1.9502678,1041.3098 v -0.3906 l 1.8005371,-0.1343 v 3.9612 q 0.7263184,-0.8118 1.7150879,-0.8118 1.0742187,0 1.8615723,0.824 0.7873535,0.824 0.7873535,2.002 0,1.1901 -0.8239746,2.0141 -0.8239746,0.824 -1.9653321,0.824 -1.0375976,0 -1.6357422,-0.9155 -0.4394531,0.7629 -0.4516601,0.7751 H 2.9268303 v -7.4524 q 0,-0.4639 -0.1647949,-0.5798 -0.164795,-0.116 -0.8117676,-0.116 z m 1.8371582,6.7261 q 0,0.2624 0.1770019,0.5249 0.4943848,0.7568 1.3000489,0.7568 0.0061,0 0.012207,0 0.8728027,0 1.4160156,-0.7995 0.3845215,-0.5982 0.3845215,-1.7701 0,-1.1596 -0.3601074,-1.7395 -0.5004883,-0.7995 -1.3122559,-0.7995 -0.9155273,0 -1.4770507,0.7995 -0.1403809,0.2015 -0.1403809,0.4517 z"
         style="font-size:12.5px;line-height:1.25;fill:#000000"
         id="path9"
         inkscape:connector-curvature="0" />
    </g>
  </g>
</svg>
