<?xml version="1.0" encoding="UTF-8" standalone="no"?>
<!-- Created with Inkscape (http://www.inkscape.org/) -->

<svg
   xmlns:dc="http://purl.org/dc/elements/1.1/"
   xmlns:cc="http://creativecommons.org/ns#"
   xmlns:rdf="http://www.w3.org/1999/02/22-rdf-syntax-ns#"
   xmlns:svg="http://www.w3.org/2000/svg"
   xmlns="http://www.w3.org/2000/svg"
   xmlns:sodipodi="http://sodipodi.sourceforge.net/DTD/sodipodi-0.dtd"
   xmlns:inkscape="http://www.inkscape.org/namespaces/inkscape"
   width="2.9000001mm"
   height="4mm"
   viewBox="0 0 10.275591 14.173228"
   id="svg2"
   version="1.1"
   inkscape:version="0.92.3 (2405546, 2018-03-11)"
   sodipodi:docname="lj.svg">
  <defs
     id="defs4" />
  <sodipodi:namedview
     id="base"
     pagecolor="#ffffff"
     bordercolor="#666666"
     borderopacity="1.0"
     inkscape:pageopacity="0.0"
     inkscape:pageshadow="2"
     inkscape:zoom="3.959798"
     inkscape:cx="-168.52845"
     inkscape:cy="-11.943475"
     inkscape:document-units="px"
     inkscape:current-layer="layer1"
     showgrid="false"
     inkscape:window-width="1920"
     inkscape:window-height="1025"
     inkscape:window-x="0"
     inkscape:window-y="0"
     inkscape:window-maximized="1" />
  <metadata
     id="metadata7">
    <rdf:RDF>
      <cc:Work
         rdf:about="">
        <dc:format>image/svg+xml</dc:format>
        <dc:type
           rdf:resource="http://purl.org/dc/dcmitype/StillImage" />
        <dc:title />
      </cc:Work>
    </rdf:RDF>
  </metadata>
  <g
     inkscape:label="Layer 1"
     inkscape:groupmode="layer"
     id="layer1"
     transform="translate(0,-1038.189)">
    <g
       aria-label="j"
       style="font-style:normal;font-variant:normal;font-weight:500;font-stretch:normal;line-height:0%;font-family:'CMU Serif';-inkscape-font-specification:'CMU Serif Medium';text-align:center;letter-spacing:0px;word-spacing:0px;text-anchor:middle;fill:#000000;fill-opacity:1;stroke:none;stroke-width:1px;stroke-linecap:butt;stroke-linejoin:miter;stroke-opacity:1"
       id="text4133">
      <path
         d="m 2.6643791,1051.0205 q 0,-0.2502 0.1586914,-0.415 0.1525879,-0.1587 0.4150391,-0.1587 0.2624512,0 0.4150391,0.1587 0.1586914,0.1648 0.1586914,0.415 0,0.2258 -0.1342774,0.3662 -0.1281738,0.1465 -0.2990723,0.1953 0.3234864,0.1648 0.6713868,0.1648 0.2868652,0 0.4821777,-0.1709 0.1953125,-0.1709 0.2807617,-0.4516 0.091553,-0.2808 0.1220703,-0.5188 0.030518,-0.232 0.030518,-0.5005 v -4.95 q 0,-0.4638 -0.1831055,-0.5798 -0.1770019,-0.116 -0.8911132,-0.116 v -0.3906 l 1.8981933,-0.1343 v 6.1463 q 0,0.8361 -0.5004883,1.3855 -0.5004882,0.5554 -1.2084961,0.5554 -0.5737304,0 -0.994873,-0.2686 -0.4211426,-0.2685 -0.421143,-0.7324 z m 1.9958496,-8.7891 q -0.1953125,-0.1953 -0.1953125,-0.4699 0,-0.2747 0.1953125,-0.47 0.1953125,-0.1953 0.4699707,-0.1953 0.2746582,0 0.4699707,0.1953 0.1953125,0.1953 0.1953125,0.47 0,0.2746 -0.1953125,0.4699 -0.1953125,0.1893 -0.4699707,0.1893 -0.2746582,0 -0.4699707,-0.1893 z"
         style="font-size:12.5px;line-height:1.25;fill:#000000"
         id="path9"
         inkscape:connector-curvature="0" />
    </g>
  </g>
</svg>
