<?xml version="1.0" encoding="UTF-8" standalone="no"?>
<svg
   xmlns:dc="http://purl.org/dc/elements/1.1/"
   xmlns:cc="http://creativecommons.org/ns#"
   xmlns:rdf="http://www.w3.org/1999/02/22-rdf-syntax-ns#"
   xmlns:svg="http://www.w3.org/2000/svg"
   xmlns="http://www.w3.org/2000/svg"
   xmlns:xlink="http://www.w3.org/1999/xlink"
   viewBox="0 0 51.703526 48.338667"
   height="48.338665"
   width="51.703526"
   xml:space="preserve"
   id="svg2"
   version="1.1"><metadata
     id="metadata8"><rdf:RDF><cc:Work
         rdf:about=""><dc:format>image/svg+xml</dc:format><dc:type
           rdf:resource="http://purl.org/dc/dcmitype/StillImage" /><dc:title></dc:title></cc:Work></rdf:RDF></metadata><defs
     id="defs6"><clipPath
       id="clipPath18"
       clipPathUnits="userSpaceOnUse"><path
         style="clip-rule:evenodd"
         id="path16"
         d="M 0,0.028 H 595.247 V 841.889 H 0 Z" /></clipPath><clipPath
       id="clipPath28"
       clipPathUnits="userSpaceOnUse"><path
         style="clip-rule:evenodd"
         id="path26"
         d="m 151.313,596.296 h 39.883 v 42.491 h -39.883 z" /></clipPath><mask
       id="mask42"
       height="1"
       width="1"
       y="0"
       x="0"
       maskUnits="userSpaceOnUse"><image
         xlink:href="Untitled 1_img0.png"
         width="1"
         height="1"
         style="image-rendering:optimizeSpeed"
         preserveAspectRatio="none"
         id="image44" /></mask><mask
       id="mask50"
       height="1"
       width="1"
       y="0"
       x="0"
       maskUnits="userSpaceOnUse"><image
         xlink:href="Untitled 1_img2.png"
         width="1"
         height="1"
         style="image-rendering:optimizeSpeed"
         preserveAspectRatio="none"
         id="image52" /></mask><clipPath
       id="clipPath62"
       clipPathUnits="userSpaceOnUse"><path
         id="path60"
         d="m 163.672,611.971 h 11.962 v 12.36 h -11.962 z" /></clipPath><clipPath
       id="clipPath76"
       clipPathUnits="userSpaceOnUse"><path
         id="path74"
         d="m 163.757,612.056 h 11.764 v 12.19 h -11.764 z" /></clipPath><clipPath
       id="clipPath92"
       clipPathUnits="userSpaceOnUse"><path
         id="path90"
         d="m 177.392,596.182 h 14.145 v 12.162 h -14.145 z" /></clipPath><clipPath
       id="clipPath106"
       clipPathUnits="userSpaceOnUse"><path
         id="path104"
         d="m 177.534,596.182 h 14.003 v 12.162 h -14.003 z" /></clipPath><clipPath
       id="clipPath120"
       clipPathUnits="userSpaceOnUse"><path
         id="path118"
         d="m 177.562,596.012 h 14.117 v 12.303 h -14.117 z" /></clipPath><clipPath
       id="clipPath134"
       clipPathUnits="userSpaceOnUse"><path
         id="path132"
         d="m 177.647,596.097 h 13.946 v 12.105 h -13.946 z" /></clipPath><clipPath
       id="clipPath148"
       clipPathUnits="userSpaceOnUse"><path
         id="path146"
         d="m 177.676,596.239 h 13.861 v 12.077 h -13.861 z" /></clipPath><clipPath
       id="clipPath162"
       clipPathUnits="userSpaceOnUse"><path
         id="path160"
         d="m 177.732,596.239 h 13.805 v 11.907 h -13.805 z" /></clipPath><clipPath
       id="clipPath176"
       clipPathUnits="userSpaceOnUse"><path
         id="path174"
         d="m 177.761,596.21 h 13.776 v 11.935 h -13.776 z" /></clipPath><clipPath
       id="clipPath190"
       clipPathUnits="userSpaceOnUse"><path
         id="path188"
         d="m 177.676,596.267 h 13.89 v 11.963 h -13.89 z" /></clipPath><clipPath
       id="clipPath204"
       clipPathUnits="userSpaceOnUse"><path
         id="path202"
         d="m 177.874,596.21 h 13.691 v 11.963 h -13.691 z" /></clipPath><clipPath
       id="clipPath218"
       clipPathUnits="userSpaceOnUse"><path
         id="path216"
         d="m 177.874,596.182 h 13.663 v 12.077 h -13.663 z" /></clipPath><clipPath
       id="clipPath232"
       clipPathUnits="userSpaceOnUse"><path
         id="path230"
         d="m 160.299,596.21 h 31.266 v 30.672 h -31.266 z" /></clipPath><clipPath
       id="clipPath246"
       clipPathUnits="userSpaceOnUse"><path
         id="path244"
         d="m 160.299,596.21 h 31.266 v 30.672 h -31.266 z" /></clipPath><clipPath
       id="clipPath260"
       clipPathUnits="userSpaceOnUse"><path
         style="clip-rule:evenodd"
         id="path258"
         d="M 0,0.028 H 595.247 V 841.889 H 0 Z" /></clipPath></defs><g
     transform="matrix(1.3333333,0,0,-1.3333333,-208.81866,843.39998)"
     id="g10"><g
       id="g24"
       clip-path="url(#clipPath28)"><g
         id="g30"><path
           d="m 176.655,609.278 c 1.417,-1.049 2.438,-2.438 3.997,-3.373 1.389,-0.822 1.644,-2.211 1.134,-3.345 -0.851,-1.814 1.644,-2.551 2.863,-3.487 1.275,-0.992 3.118,-1.134 4.734,-1.53 l 1.389,-0.199 h 0.737"
           style="fill:none;stroke:#999999;stroke-width:2.47643995;stroke-linecap:butt;stroke-linejoin:round;stroke-miterlimit:10;stroke-dasharray:none;stroke-opacity:1"
           id="path32" /></g><path
         d="m 166.45,622.176 -3.515,-2.381 -6.321,7.993 7.002,4.762 6.321,-7.993 z"
         style="fill:#b3b3b3;fill-opacity:1;fill-rule:evenodd;stroke:none"
         id="path34" /><path
         d="m 175.096,611.12 4.11,2.807 c 0.397,0.255 0.482,0.793 0.17,1.162 l -9.099,11.509 c -0.312,0.368 -0.85,0.453 -1.275,0.17 l -8.193,-5.585 c -0.396,-0.283 -0.481,-0.793 -0.198,-1.162 l 9.128,-11.508 c 0.283,-0.369 0.85,-0.454 1.247,-0.199 z"
         style="fill:#1a1a1a;fill-opacity:1;fill-rule:evenodd;stroke:none"
         id="path36" /><path
         d="m 169.937,608.371 3.713,-1.021 2.778,-1.19 4.139,3.061 -0.822,2.693 -0.284,2.892 z"
         style="fill:#1a1a1a;fill-opacity:1;fill-rule:evenodd;stroke:none"
         id="path38" /><g
         id="g56"><g
           id="g58" /><g
           id="g68"><g
             clip-path="url(#clipPath62)"
             id="g66"
             style="opacity:0.23999999"><path
               d="m 166.535,615.996 2.382,-3.175 c 0.51,-0.68 1.474,-0.822 2.154,-0.34 l 3.685,2.608 c 0.68,0.482 0.85,1.417 0.34,2.098 l -4.734,6.321 c -0.51,0.68 -1.474,0.822 -2.182,0.34 l -3.657,-2.579 c -0.709,-0.511 -0.851,-1.446 -0.34,-2.098 z"
               style="fill:#808080;fill-opacity:1;fill-rule:evenodd;stroke:none"
               id="path64" /></g></g></g><g
         id="g70"><g
           id="g72" /><g
           id="g84"><g
             clip-path="url(#clipPath76)"
             id="g82"
             style="opacity:0.23999999"><g
               id="g80"><path
                 d="m 166.535,615.996 2.382,-3.175 c 0.51,-0.68 1.474,-0.822 2.154,-0.34 l 3.685,2.608 c 0.68,0.482 0.85,1.417 0.34,2.098 l -4.734,6.321 c -0.51,0.68 -1.474,0.822 -2.182,0.34 l -3.657,-2.579 c -0.709,-0.511 -0.851,-1.446 -0.34,-2.098 z"
                 style="fill:none;stroke:#ffffff;stroke-width:0.23296;stroke-linecap:butt;stroke-linejoin:round;stroke-miterlimit:10;stroke-dasharray:none;stroke-opacity:1"
                 id="path78" /></g></g></g></g><g
         id="g86"><g
           id="g88" /><g
           id="g98"><g
             clip-path="url(#clipPath92)"
             id="g96"
             style="opacity:0.23999999"><path
               d="m 189.609,596.352 c -2.976,0.51 -4.648,1.049 -5.669,1.786 -0.17,0.142 -0.709,0.482 -1.219,0.794 -1.134,0.68 -1.729,1.247 -2.069,1.955 -0.312,0.652 -0.312,1.106 -0.028,1.928 0.396,1.162 0.226,1.531 -0.993,2.409 -0.907,0.624 -2.239,1.758 -2.097,1.758 0.028,0 0.51,0.312 1.02,0.68 l 0.936,0.681 0.425,-0.397 c 0.255,-0.227 0.85,-0.709 1.332,-1.049 0.992,-0.68 1.361,-1.106 1.701,-1.899 0.312,-0.652 0.312,-1.673 0.057,-2.552 l -0.199,-0.651 0.255,-0.256 c 0.142,-0.17 0.652,-0.538 1.163,-0.822 0.482,-0.311 1.077,-0.68 1.304,-0.822 0.198,-0.17 0.623,-0.368 0.878,-0.453 0.936,-0.312 3.345,-0.822 4.224,-0.879 l 0.879,-0.057 v -1.162 -1.134 h -0.567 c -0.284,0 -0.907,0.085 -1.333,0.142 z"
               style="fill:#1a1a1a;fill-opacity:1;fill-rule:evenodd;stroke:none"
               id="path94" /></g></g></g><g
         id="g100"><g
           id="g102" /><g
           id="g112"><g
             clip-path="url(#clipPath106)"
             id="g110"
             style="opacity:0.23999999"><path
               d="m 190.488,596.267 c -1.502,0.17 -4.053,0.765 -5.102,1.162 -0.879,0.34 -3.685,2.154 -4.139,2.636 -0.765,0.879 -0.907,1.503 -0.623,2.637 0.368,1.445 0.311,1.587 -1.134,2.664 -0.539,0.397 -1.191,0.907 -1.446,1.162 l -0.51,0.426 0.822,0.595 c 0.453,0.312 0.907,0.652 0.964,0.709 0.085,0.085 0.255,0 0.595,-0.312 0.227,-0.227 0.737,-0.624 1.134,-0.907 0.368,-0.284 0.85,-0.681 1.077,-0.907 0.935,-0.851 1.247,-2.155 0.85,-3.572 -0.17,-0.737 -0.17,-0.765 0.029,-0.992 0.226,-0.227 2.324,-1.644 2.976,-1.985 0.737,-0.368 3.94,-1.048 4.932,-1.048 h 0.596 v -1.163 -1.162 h -0.34 c -0.199,0 -0.482,0.029 -0.681,0.057 z"
               style="fill:#1a1a1a;fill-opacity:1;fill-rule:evenodd;stroke:none"
               id="path108" /></g></g></g><g
         id="g114"><g
           id="g116" /><g
           id="g126"><g
             clip-path="url(#clipPath120)"
             id="g124"
             style="opacity:0.23999999"><path
               d="m 190.318,596.324 c -1.134,0.113 -3.316,0.595 -4.309,0.935 -1.303,0.425 -3.883,1.984 -4.705,2.835 -0.765,0.765 -0.964,1.644 -0.624,2.721 0.199,0.68 0.199,1.191 -0.056,1.559 -0.085,0.142 -0.652,0.652 -1.219,1.077 -0.596,0.454 -1.219,0.964 -1.446,1.162 l -0.397,0.341 0.425,0.34 c 0.227,0.17 0.426,0.312 0.454,0.312 0.057,0 0.142,0.056 0.227,0.141 0.623,0.567 0.765,0.567 1.332,0.114 0.255,-0.227 0.85,-0.709 1.332,-1.078 1.021,-0.793 1.446,-1.332 1.673,-2.182 0.198,-0.766 0.198,-0.936 0,-1.899 -0.114,-0.454 -0.142,-0.879 -0.114,-0.993 0.057,-0.198 2.24,-1.7 3.062,-2.097 0.85,-0.425 3.883,-1.077 4.989,-1.077 h 0.567 v -1.163 c 0,-1.332 0.141,-1.218 -1.191,-1.048 z"
               style="fill:#1a1a1a;fill-opacity:1;fill-rule:evenodd;stroke:none"
               id="path122" /></g></g></g><g
         id="g128"><g
           id="g130" /><g
           id="g140"><g
             clip-path="url(#clipPath134)"
             id="g138"
             style="opacity:0.23999999"><path
               d="m 190.12,596.38 c -1.361,0.17 -3.629,0.681 -4.479,1.049 -0.85,0.312 -1.928,0.936 -3.005,1.644 -1.899,1.276 -2.324,2.07 -1.984,3.6 0.227,0.936 0.227,1.333 0,1.673 -0.113,0.17 -0.794,0.765 -1.531,1.36 -0.737,0.596 -1.389,1.134 -1.417,1.191 -0.057,0.057 0.028,0.198 0.17,0.312 0.142,0.113 0.312,0.226 0.369,0.283 0.056,0.028 0.198,0.114 0.283,0.142 0.113,0.057 0.198,0.142 0.198,0.198 0,0.057 0.029,0.085 0.085,0.057 0.057,-0.057 0.171,0.028 0.227,0.142 0.085,0.113 0.199,0.17 0.369,0.141 0.283,-0.085 2.352,-1.729 2.863,-2.267 0.737,-0.822 0.963,-1.758 0.737,-3.118 -0.114,-0.511 -0.142,-0.992 -0.114,-1.078 0.085,-0.255 2.835,-2.069 3.544,-2.324 0.878,-0.312 3.656,-0.85 4.422,-0.85 h 0.652 v -1.106 c 0,-1.304 0.056,-1.247 -1.389,-1.049 z"
               style="fill:#1a1a1a;fill-opacity:1;fill-rule:evenodd;stroke:none"
               id="path136" /></g></g></g><g
         id="g142"><g
           id="g144" /><g
           id="g154"><g
             clip-path="url(#clipPath148)"
             id="g152"
             style="opacity:0.23999999"><path
               d="m 189.439,596.465 c -2.891,0.511 -4.592,1.163 -6.604,2.495 -1.389,0.907 -1.956,1.502 -2.155,2.239 -0.17,0.539 -0.17,0.681 -0.028,1.418 0.227,1.02 0.227,1.389 0,1.729 -0.113,0.17 -0.822,0.793 -1.587,1.417 -1.389,1.134 -1.389,1.134 -1.248,1.389 0.114,0.142 0.255,0.255 0.34,0.255 0.086,0 0.171,0.057 0.199,0.142 0.028,0.085 0.113,0.142 0.17,0.113 0.028,-0.028 0.113,0 0.142,0.114 0.028,0.085 0.113,0.141 0.17,0.085 0.028,-0.029 0.142,0.056 0.198,0.17 0.199,0.283 0.482,0.141 1.928,-1.021 1.275,-1.02 1.786,-1.615 1.984,-2.352 0.142,-0.482 0.142,-1.446 -0.028,-2.126 -0.057,-0.284 -0.085,-0.624 -0.057,-0.766 0.085,-0.227 2.154,-1.701 3.146,-2.183 0.851,-0.453 3.742,-1.048 4.876,-1.048 h 0.624 v -0.964 c 0,-0.51 -0.029,-1.021 -0.057,-1.106 -0.085,-0.198 -0.822,-0.198 -2.013,0 z"
               style="fill:#1a1a1a;fill-opacity:1;fill-rule:evenodd;stroke:none"
               id="path150" /></g></g></g><g
         id="g156"><g
           id="g158" /><g
           id="g168"><g
             clip-path="url(#clipPath162)"
             id="g166"
             style="opacity:0.23999999"><path
               d="m 189.326,596.522 c -2.693,0.482 -4.649,1.219 -6.548,2.495 -2.069,1.389 -2.381,2.041 -2.041,4.025 0.085,0.397 0.085,0.85 0.057,0.992 -0.085,0.312 -0.596,0.85 -1.644,1.672 -1.361,1.077 -1.418,1.163 -1.276,1.446 0.085,0.142 0.198,0.255 0.283,0.255 0.057,0 0.171,0.085 0.227,0.17 0.057,0.114 0.114,0.142 0.114,0.114 0,-0.057 0.17,0.028 0.368,0.17 0.255,0.198 0.454,0.283 0.595,0.226 0.256,-0.085 2.126,-1.559 2.693,-2.126 0.794,-0.793 1.021,-1.814 0.794,-3.316 -0.142,-0.822 -0.142,-0.85 0.113,-1.106 0.284,-0.311 2.155,-1.559 2.835,-1.899 0.964,-0.482 3.77,-1.105 4.989,-1.105 h 0.624 v -0.992 c 0,-0.624 -0.057,-1.021 -0.142,-1.106 -0.17,-0.17 -0.765,-0.142 -2.041,0.085 z"
               style="fill:#1a1a1a;fill-opacity:1;fill-rule:evenodd;stroke:none"
               id="path164" /></g></g></g><g
         id="g170"><g
           id="g172" /><g
           id="g182"><g
             clip-path="url(#clipPath176)"
             id="g180"
             style="opacity:0.23999999"><path
               d="m 189.326,596.522 c -0.624,0.113 -1.616,0.34 -2.154,0.482 -2.665,0.709 -5.925,2.75 -6.407,3.997 -0.17,0.482 -0.17,0.708 0.029,2.381 0.085,0.794 -0.085,1.049 -1.446,2.183 -0.652,0.51 -1.276,1.048 -1.389,1.162 -0.198,0.227 -0.198,0.255 -0.028,0.51 0.085,0.142 0.226,0.255 0.255,0.227 0.057,-0.029 0.142,0.028 0.198,0.113 0.057,0.114 0.114,0.17 0.114,0.114 0,-0.057 0.17,0.028 0.396,0.17 0.227,0.17 0.426,0.283 0.482,0.283 0.142,0 1.73,-1.247 2.438,-1.899 1.106,-1.021 1.361,-1.871 1.134,-3.543 -0.142,-0.907 -0.142,-0.907 0.113,-1.163 0.284,-0.311 2.155,-1.559 2.835,-1.927 0.964,-0.482 3.77,-1.077 4.989,-1.077 h 0.624 v -0.907 c 0,-0.511 -0.057,-1.021 -0.114,-1.106 -0.141,-0.283 -0.51,-0.255 -2.069,0 z"
               style="fill:#1a1a1a;fill-opacity:1;fill-rule:evenodd;stroke:none"
               id="path178" /></g></g></g><g
         id="g184"><g
           id="g186" /><g
           id="g196"><g
             clip-path="url(#clipPath190)"
             id="g194"
             style="opacity:0.23999999"><path
               d="m 189.439,596.522 c -2.352,0.397 -4.025,0.964 -5.641,1.899 -1.332,0.766 -2.352,1.588 -2.806,2.183 -0.283,0.397 -0.312,0.567 -0.312,1.162 0,0.397 0.029,1.049 0.085,1.474 0.114,0.992 0.057,1.106 -1.474,2.353 -1.615,1.332 -1.587,1.304 -1.36,1.644 0.085,0.142 0.226,0.255 0.255,0.227 0.057,-0.029 0.142,0.028 0.198,0.113 0.057,0.114 0.114,0.17 0.114,0.114 0,-0.057 0.198,0.056 0.425,0.198 0.482,0.34 0.453,0.34 1.871,-0.794 2.069,-1.615 2.409,-2.352 2.154,-4.393 -0.142,-0.879 -0.113,-0.936 0.113,-1.163 0.284,-0.311 2.155,-1.559 2.835,-1.927 0.964,-0.482 3.77,-1.077 4.989,-1.077 h 0.652 l -0.057,-1.021 c -0.028,-1.105 -0.085,-1.219 -0.652,-1.19 -0.198,0 -0.793,0.085 -1.389,0.198 z"
               style="fill:#1a1a1a;fill-opacity:1;fill-rule:evenodd;stroke:none"
               id="path192" /></g></g></g><g
         id="g198"><g
           id="g200" /><g
           id="g210"><g
             clip-path="url(#clipPath204)"
             id="g208"
             style="opacity:0.23999999"><path
               d="m 190.29,596.38 c -2.807,0.369 -5.499,1.333 -7.54,2.693 -1.843,1.247 -2.268,1.956 -2.041,3.515 0.17,1.304 0.17,1.474 -0.199,1.899 -0.198,0.199 -0.85,0.822 -1.502,1.333 -0.624,0.538 -1.134,1.049 -1.134,1.134 0,0.17 0.312,0.68 0.312,0.51 0,-0.029 0.255,0.113 0.595,0.312 l 0.567,0.396 0.567,-0.368 c 0.964,-0.68 2.239,-1.843 2.579,-2.353 0.482,-0.737 0.596,-1.417 0.454,-2.664 -0.142,-0.992 -0.142,-0.992 0.113,-1.248 0.284,-0.311 2.155,-1.559 2.835,-1.927 0.964,-0.482 3.77,-1.077 4.989,-1.077 h 0.652 l -0.057,-1.021 c -0.056,-1.247 -0.085,-1.275 -1.19,-1.134 z"
               style="fill:#1a1a1a;fill-opacity:1;fill-rule:evenodd;stroke:none"
               id="path206" /></g></g></g><g
         id="g212"><g
           id="g214" /><g
           id="g224"><g
             clip-path="url(#clipPath218)"
             id="g222"
             style="opacity:0.23999999"><path
               d="m 190.006,596.409 c -2.834,0.425 -5.045,1.247 -7.143,2.608 -1.928,1.247 -2.381,1.984 -2.154,3.571 0.198,1.276 0.17,1.474 -0.199,1.899 -0.198,0.199 -0.85,0.822 -1.502,1.333 -0.624,0.538 -1.134,1.049 -1.134,1.134 0,0.17 0.312,0.68 0.312,0.51 0,-0.029 0.255,0.113 0.567,0.312 0.68,0.453 0.595,0.482 2.069,-0.709 1.021,-0.794 1.644,-1.446 1.899,-1.956 0.255,-0.482 0.34,-1.417 0.199,-2.381 -0.114,-0.907 -0.114,-0.935 0.141,-1.191 0.284,-0.311 2.155,-1.559 2.835,-1.927 0.964,-0.482 3.77,-1.077 4.989,-1.077 h 0.624 v -0.822 c 0,-1.361 -0.17,-1.503 -1.503,-1.304 z"
               style="fill:#1a1a1a;fill-opacity:1;fill-rule:evenodd;stroke:none"
               id="path220" /></g></g></g><g
         id="g226"><g
           id="g228" /><g
           id="g238"><g
             clip-path="url(#clipPath232)"
             id="g236"
             style="opacity:0.23999999"><path
               d="m 190.29,596.38 c -0.936,0.114 -3.033,0.624 -3.969,0.936 -2.381,0.822 -4.705,2.296 -5.357,3.401 -0.312,0.539 -0.34,0.907 -0.199,2.41 l 0.085,0.964 -0.34,0.396 c -0.198,0.199 -0.85,0.822 -1.502,1.333 -1.106,0.935 -1.276,1.19 -0.992,1.474 0.113,0.113 -0.312,-0.142 -1.333,-0.879 l -0.283,-0.198 -1.502,0.623 c -1.389,0.595 -4.082,1.418 -4.592,1.418 -0.114,0 -0.369,0.141 -0.539,0.34 -0.17,0.17 -2.324,2.863 -4.791,5.952 -4.592,5.84 -4.677,5.953 -4.308,6.407 0.085,0.085 0.368,0.312 0.652,0.51 1.134,0.822 7.54,5.159 7.738,5.272 0.312,0.142 0.794,0.142 0.992,-0.028 0.085,-0.057 2.24,-2.75 4.791,-5.981 3.458,-4.365 4.649,-5.924 4.649,-6.123 0,-1.19 0.227,-2.721 0.567,-3.827 0.198,-0.652 0.397,-1.275 0.425,-1.389 0.028,-0.113 -0.312,-0.425 -1.134,-1.048 -0.624,-0.454 -1.162,-0.879 -1.162,-0.908 0,-0.028 0.255,0.142 0.567,0.341 0.595,0.396 0.595,0.396 0.878,0.198 1.134,-0.709 2.75,-2.239 3.062,-2.806 0.255,-0.51 0.34,-1.418 0.227,-2.438 -0.114,-0.907 -0.085,-0.964 0.141,-1.191 0.284,-0.311 2.155,-1.559 2.835,-1.927 0.964,-0.482 3.77,-1.077 4.989,-1.077 h 0.652 l -0.057,-0.964 c -0.056,-1.247 -0.141,-1.332 -1.19,-1.191 z m -19.588,15.761 c 0.341,0.142 3.855,2.608 4.281,3.005 0.453,0.425 0.623,0.992 0.482,1.53 -0.171,0.511 -4.989,6.974 -5.443,7.314 -0.283,0.17 -0.539,0.227 -0.935,0.227 -0.596,0 -0.822,-0.114 -3.799,-2.268 -1.049,-0.737 -1.247,-0.936 -1.417,-1.361 -0.17,-0.453 -0.17,-0.51 -0.057,-0.935 0.114,-0.284 1.106,-1.729 2.721,-3.855 2.155,-2.892 2.608,-3.43 2.948,-3.572 0.454,-0.198 0.879,-0.227 1.219,-0.085 z"
               style="fill:#1a1a1a;fill-opacity:1;fill-rule:evenodd;stroke:none"
               id="path234" /></g></g></g><g
         id="g240"><g
           id="g242" /><g
           id="g252"><g
             clip-path="url(#clipPath246)"
             id="g250"
             style="opacity:0.23999999"><path
               d="m 190.29,596.38 c -0.936,0.114 -3.033,0.624 -3.969,0.936 -2.381,0.822 -4.705,2.296 -5.329,3.373 -0.312,0.539 -0.368,0.992 -0.227,2.438 l 0.085,0.964 -0.34,0.396 c -0.198,0.199 -0.85,0.822 -1.502,1.361 -0.992,0.794 -1.162,0.992 -1.106,1.191 0.029,0.226 0.029,0.255 -0.141,0.141 -0.114,-0.085 -0.454,-0.34 -0.794,-0.567 l -0.567,-0.396 -1.502,0.623 c -1.389,0.595 -4.082,1.418 -4.592,1.418 -0.114,0 -0.369,0.141 -0.539,0.34 -0.17,0.17 -2.324,2.863 -4.791,5.952 -4.592,5.84 -4.677,5.953 -4.308,6.407 0.085,0.085 0.368,0.312 0.652,0.51 1.134,0.822 7.54,5.159 7.738,5.272 0.312,0.142 0.794,0.142 0.992,-0.028 0.085,-0.057 2.24,-2.75 4.791,-5.981 3.43,-4.337 4.649,-5.924 4.649,-6.123 0,-1.19 0.227,-2.721 0.567,-3.827 0.198,-0.652 0.397,-1.275 0.425,-1.389 0.028,-0.113 -0.312,-0.425 -1.134,-1.048 -0.624,-0.454 -1.162,-0.879 -1.162,-0.908 0,-0.028 0.255,0.142 0.595,0.341 l 0.567,0.396 0.397,-0.255 c 0.709,-0.482 2.183,-1.757 2.551,-2.211 0.198,-0.226 0.425,-0.595 0.51,-0.793 0.17,-0.426 0.199,-1.531 0.085,-2.523 -0.056,-0.51 -0.056,-0.624 0.114,-0.822 0.255,-0.284 2.154,-1.559 2.863,-1.928 1.02,-0.51 3.741,-1.105 5.017,-1.105 h 0.652 l -0.057,-0.964 c -0.056,-1.247 -0.141,-1.332 -1.19,-1.191 z m -19.588,15.761 c 0.341,0.142 3.855,2.608 4.281,3.005 0.453,0.453 0.623,0.992 0.482,1.53 -0.171,0.511 -4.989,6.974 -5.443,7.314 -0.283,0.198 -0.453,0.227 -0.992,0.198 -0.624,-0.028 -0.68,-0.085 -2.069,-1.049 -2.75,-1.927 -2.892,-2.041 -3.09,-2.579 -0.17,-0.425 -0.17,-0.51 -0.028,-0.907 0.085,-0.284 1.105,-1.758 2.692,-3.855 2.155,-2.892 2.608,-3.43 2.948,-3.572 0.454,-0.198 0.879,-0.227 1.219,-0.085 z"
               style="fill:#1a1a1a;fill-opacity:1;fill-rule:evenodd;stroke:none"
               id="path248" /></g></g></g><path
         id="rect1156"
         d="m -504.47375,401.90466 h 1.12318 c 0.16752,0 0.30237,0.13486 0.30237,0.30237 v 5.63809 c 0,0.16751 -0.13485,0.30237 -0.30237,0.30237 h -1.12318 c -0.16752,0 -0.30237,-0.13486 -0.30237,-0.30237 v -5.63809 c 0,-0.16751 0.13485,-0.30237 0.30237,-0.30237 z"
         style="fill:#808080;fill-rule:evenodd;stroke-width:0.75"
         transform="matrix(-0.80073136,-0.59902361,-0.59902361,0.80073136,0,0)" /><path
         id="rect1156-3-6"
         d="m -508.65436,401.77045 h 1.12319 c 0.16751,0 0.30237,0.13485 0.30237,0.30237 v 5.63808 c 0,0.16752 -0.13486,0.30237 -0.30237,0.30237 h -1.12319 c -0.16751,0 -0.30237,-0.13485 -0.30237,-0.30237 v -5.63808 c 0,-0.16752 0.13486,-0.30237 0.30237,-0.30237 z"
         style="fill:#808080;fill-rule:evenodd;stroke-width:0.75"
         transform="matrix(-0.80073137,-0.5990236,-0.5990236,0.80073137,0,0)" /></g><g
       id="g254"><g
         clip-path="url(#clipPath260)"
         id="g256"><g
           id="g262"><path
             id="path264"
             style="fill:none;stroke:#3465a4;stroke-width:2.89128995;stroke-linecap:butt;stroke-linejoin:round;stroke-miterlimit:10;stroke-dasharray:none;stroke-opacity:1"
             d="m 168.746,601.143 c 0.426,2.267 0.652,4.563 1.021,6.803 0.397,2.381 0.425,5.017 1.701,7.001 1.049,1.644 2.154,6.492 3.912,4.394 2.211,-2.636 3.713,-0.624 5.102,0.595 1.531,1.333 2.183,6.066 4.62,3.6 1.389,-1.417 2.041,-3.741 2.041,-5.981 0,-2.296 1.163,-4.337 2.211,-6.208 1.134,-2.041 1.871,-4.422 3.572,-6.009 l 1.02,-1.984 v -0.199" /></g><path
           id="path266"
           style="fill:#ff0000;fill-opacity:1;fill-rule:evenodd;stroke:none"
           d="m 175.635,620.05 c 0,-0.255 -0.085,-0.539 -0.227,-0.766 -0.142,-0.226 -0.34,-0.425 -0.595,-0.567 -0.227,-0.141 -0.511,-0.198 -0.794,-0.198 -0.312,0 -0.595,0.057 -0.822,0.198 -0.255,0.142 -0.454,0.341 -0.595,0.567 -0.142,0.227 -0.227,0.511 -0.227,0.766 0,0.255 0.085,0.538 0.227,0.765 0.141,0.227 0.34,0.425 0.595,0.567 0.227,0.142 0.51,0.198 0.822,0.198 0.283,0 0.567,-0.056 0.794,-0.198 0.255,-0.142 0.453,-0.34 0.595,-0.567 0.142,-0.227 0.227,-0.51 0.227,-0.765 z" /><path
           id="path268"
           style="fill:#ff0000;fill-opacity:1;fill-rule:evenodd;stroke:none"
           d="m 185.471,624.415 c 0,-0.255 -0.085,-0.539 -0.227,-0.765 -0.142,-0.227 -0.34,-0.426 -0.595,-0.567 -0.227,-0.142 -0.51,-0.199 -0.794,-0.199 -0.312,0 -0.595,0.057 -0.822,0.199 -0.255,0.141 -0.453,0.34 -0.595,0.567 -0.142,0.226 -0.227,0.51 -0.227,0.765 0,0.255 0.085,0.539 0.227,0.765 0.142,0.227 0.34,0.426 0.595,0.567 0.227,0.142 0.51,0.199 0.822,0.199 0.284,0 0.567,-0.057 0.794,-0.199 0.255,-0.141 0.453,-0.34 0.595,-0.567 0.142,-0.226 0.227,-0.51 0.227,-0.765 z" /></g></g></g></svg>