<?xml version="1.0" encoding="UTF-8" standalone="no"?>
<!-- Created with Inkscape (http://www.inkscape.org/) -->

<svg
   xmlns:dc="http://purl.org/dc/elements/1.1/"
   xmlns:cc="http://creativecommons.org/ns#"
   xmlns:rdf="http://www.w3.org/1999/02/22-rdf-syntax-ns#"
   xmlns:svg="http://www.w3.org/2000/svg"
   xmlns="http://www.w3.org/2000/svg"
   xmlns:sodipodi="http://sodipodi.sourceforge.net/DTD/sodipodi-0.dtd"
   xmlns:inkscape="http://www.inkscape.org/namespaces/inkscape"
   width="2.9000001mm"
   height="4mm"
   viewBox="0 0 10.275591 14.173228"
   id="svg2"
   version="1.1"
   inkscape:version="0.92.3 (2405546, 2018-03-11)"
   sodipodi:docname="l5.svg">
  <defs
     id="defs4" />
  <sodipodi:namedview
     id="base"
     pagecolor="#ffffff"
     bordercolor="#666666"
     borderopacity="1.0"
     inkscape:pageopacity="0.0"
     inkscape:pageshadow="2"
     inkscape:zoom="0.35"
     inkscape:cx="-1551.2828"
     inkscape:cy="166.24534"
     inkscape:document-units="px"
     inkscape:current-layer="layer1"
     showgrid="false"
     inkscape:window-width="1920"
     inkscape:window-height="1025"
     inkscape:window-x="0"
     inkscape:window-y="0"
     inkscape:window-maximized="1" />
  <metadata
     id="metadata7">
    <rdf:RDF>
      <cc:Work
         rdf:about="">
        <dc:format>image/svg+xml</dc:format>
        <dc:type
           rdf:resource="http://purl.org/dc/dcmitype/StillImage" />
        <dc:title />
      </cc:Work>
    </rdf:RDF>
  </metadata>
  <g
     inkscape:label="Layer 1"
     inkscape:groupmode="layer"
     id="layer1"
     transform="translate(0,-1038.189)">
    <g
       aria-label="5"
       style="font-style:normal;font-variant:normal;font-weight:500;font-stretch:normal;line-height:0%;font-family:'CMU Serif';-inkscape-font-specification:'CMU Serif Medium';text-align:center;letter-spacing:0px;word-spacing:0px;text-anchor:middle;fill:#000000;fill-opacity:1;stroke:none;stroke-width:1px;stroke-linecap:butt;stroke-linejoin:miter;stroke-opacity:1"
       id="text4133">
      <path
         d="m 2.5667229,1047.4438 q 0,-0.3723 0.201416,-0.5126 0.201416,-0.1465 0.415039,-0.1465 0.2868653,0 0.4516602,0.1831 0.1708984,0.177 0.1708984,0.4272 0,0.2503 -0.1708984,0.4334 -0.1647949,0.177 -0.4516602,0.177 -0.1403808,0 -0.213623,-0.024 0.1647949,0.5737 0.6652832,0.9887 0.5065918,0.4151 1.171875,0.4151 0.8361816,0 1.3366699,-0.8118 0.2990723,-0.5249 0.2990723,-1.7151 0,-1.0498 -0.2258301,-1.5747 -0.3479004,-0.7996 -1.0620117,-0.7996 -1.0131836,0 -1.6113281,0.8728 -0.073242,0.1099 -0.1586914,0.116 -0.1220703,0 -0.1525879,-0.067 -0.024414,-0.073 -0.024414,-0.2625 v -3.6987 q 0,-0.2991 0.1220703,-0.2991 0.048828,0 0.1525879,0.037 0.7873535,0.3479 1.6601563,0.354 0.8972168,0 1.7028808,-0.3662 0.061035,-0.037 0.097656,-0.037 0.1220703,0 0.1281738,0.1404 0,0.049 -0.1037598,0.1953 -0.097656,0.1404 -0.3112793,0.3296 -0.213623,0.1831 -0.4882812,0.3601 -0.2746582,0.177 -0.6774902,0.2991 -0.3967286,0.1159 -0.8361817,0.1159 -0.5249023,0 -1.0620117,-0.1648 v 2.4354 q 0.6469727,-0.6348 1.5869141,-0.6348 1.0009765,0 1.6906738,0.8056 0.6896973,0.8057 0.6896973,1.9288 0,1.1779 -0.8178711,1.9836 -0.8117676,0.8057 -1.9104004,0.8057 -1.0009766,0 -1.6357422,-0.7141 -0.6286621,-0.7142 -0.6286621,-1.5748 z"
         style="font-size:12.5px;line-height:1.25;fill:#000000"
         id="path9"
         inkscape:connector-curvature="0" />
    </g>
  </g>
</svg>
